<svg width="36" height="37" viewBox="0 0 36 37" fill="none" xmlns="http://www.w3.org/2000/svg">
<path d="M25.2 18.3889C25.2017 16.9582 24.7552 15.5658 23.928 14.4222L27.12 11.1291C27.7442 11.399 28.4121 11.5429 29.088 11.5532C29.6995 11.5732 30.3088 11.4677 30.8811 11.2427C31.4533 11.0178 31.9773 10.6778 32.4231 10.2422C32.8689 9.80664 33.2277 9.284 33.4791 8.70418C33.7304 8.12436 33.8694 7.49873 33.888 6.86306C33.888 5.53974 33.3823 4.27063 32.4821 3.33491C31.5819 2.39918 30.361 1.8735 29.088 1.8735C27.815 1.8735 26.5941 2.39918 25.6939 3.33491C24.7937 4.27063 24.288 5.53974 24.288 6.86306C24.2911 7.63476 24.4897 8.39199 24.864 9.05846L21.672 12.3765C20.5499 11.7237 19.2859 11.3802 18 11.3786C16.4124 11.3559 14.862 11.8793 13.5902 12.8674C12.3185 13.8555 11.3966 15.2529 10.968 16.8422H9.312C8.94953 15.9105 8.32486 15.1143 7.51977 14.5579C6.71469 14.0014 5.76672 13.7107 4.8 13.7237C3.56901 13.6833 2.37277 14.1515 1.47315 15.0259C0.573529 15.9003 0.0438257 17.1095 0 18.3889C0.0186204 19.0246 0.157581 19.6502 0.408938 20.2301C0.660296 20.8099 1.01912 21.3325 1.4649 21.7681C1.91068 22.2037 2.43468 22.5437 3.00694 22.7686C3.57919 22.9936 4.18849 23.0991 4.8 23.0791C5.76672 23.0921 6.71469 22.8014 7.51977 22.2449C8.32486 21.6885 8.94953 20.8923 9.312 19.9607H10.968C11.3966 21.5499 12.3185 22.9473 13.5902 23.9354C14.862 24.9235 16.4124 25.447 18 25.4242C18.9173 25.4542 19.8312 25.2959 20.6896 24.9585C21.548 24.621 22.334 24.1111 23.0026 23.4577C23.6713 22.8043 24.2096 22.0204 24.5866 21.1506C24.9636 20.2809 25.1721 19.3425 25.2 18.3889ZM29.088 5.3163C29.5238 5.27458 29.9577 5.41386 30.295 5.70369C30.6322 5.99351 30.8455 6.41033 30.888 6.86306C30.8181 7.30686 30.5986 7.71036 30.2689 8.00152C29.9392 8.29268 29.5206 8.45253 29.088 8.45253C28.6554 8.45253 28.2368 8.29268 27.9071 8.00152C27.5774 7.71036 27.358 7.30686 27.288 6.86306C27.3365 6.41292 27.5513 5.99998 27.8872 5.71139C28.223 5.42279 28.6536 5.28113 29.088 5.3163ZM4.8 19.9607C4.36183 19.9954 3.92799 19.8504 3.5915 19.5566C3.25501 19.2628 3.04267 18.8436 3 18.3889C3.04848 17.9388 3.26332 17.5259 3.59916 17.2373C3.935 16.9487 4.36558 16.807 4.8 16.8422C5.23442 16.807 5.665 16.9487 6.00084 17.2373C6.33668 17.5259 6.55152 17.9388 6.6 18.3889C6.55733 18.8436 6.34499 19.2628 6.0085 19.5566C5.67201 19.8504 5.23817 19.9954 4.8 19.9607ZM18 22.3057C16.9446 22.3603 15.9112 21.9793 15.1246 21.2458C14.338 20.5122 13.862 19.4855 13.8 18.3889C13.8619 17.2944 14.3388 16.2701 15.1261 15.5406C15.9134 14.811 16.9469 14.4358 18 14.4971C19.0515 14.4424 20.0815 14.8199 20.8674 15.5482C21.6533 16.2764 22.132 17.2968 22.2 18.3889C22.1319 19.4831 21.6541 20.5061 20.8689 21.2383C20.0838 21.9705 19.0538 22.3537 18 22.3057Z" fill="#A70A00"/>
<path d="M4.8 9.35784C5.47744 9.36241 6.14814 9.21788 6.768 8.93373L10.992 13.3994C11.6036 12.5504 12.3504 11.8163 13.2 11.2289L9.024 6.86306C9.39826 6.19659 9.59693 5.43936 9.6 4.66765C9.55617 3.38822 9.02647 2.17896 8.12685 1.3046C7.22723 0.430239 6.03099 -0.037992 4.8 0.00241383C3.56901 -0.037992 2.37277 0.430239 1.47315 1.3046C0.573529 2.17896 0.0438257 3.38822 0 4.66765C0.0186204 5.30333 0.157581 5.92896 0.408938 6.50878C0.660296 7.08859 1.01912 7.61123 1.4649 8.04682C1.91068 8.4824 2.43468 8.82238 3.00694 9.04734C3.57919 9.27229 4.18849 9.3778 4.8 9.35784ZM4.8 3.12089C5.23442 3.08572 5.665 3.22739 6.00084 3.51598C6.33668 3.80457 6.55152 4.21752 6.6 4.66765C6.55733 5.1223 6.34499 5.54146 6.0085 5.83527C5.67201 6.12909 5.23817 6.27415 4.8 6.23936C4.36183 6.27415 3.92799 6.12909 3.5915 5.83527C3.25501 5.54146 3.04267 5.1223 3 4.66765C3.04848 4.21752 3.26332 3.80457 3.59916 3.51598C3.935 3.22739 4.36558 3.08572 4.8 3.12089ZM31.2 27.445C30.5226 27.4404 29.8519 27.585 29.232 27.8691L25.008 23.3785C24.383 24.2029 23.6284 24.9114 22.776 25.4741L26.952 29.815C26.5851 30.4835 26.3946 31.2409 26.4 32.0104C26.4 33.3338 26.9057 34.6029 27.8059 35.5386C28.7061 36.4743 29.927 37 31.2 37C32.473 37 33.6939 36.4743 34.5941 35.5386C35.4943 34.6029 36 33.3338 36 32.0104C35.9317 30.7487 35.3914 29.5647 34.4944 28.7116C33.5975 27.8585 32.4151 27.4039 31.2 27.445ZM31.2 33.6819C30.7618 33.7167 30.328 33.5717 29.9915 33.2779C29.655 32.984 29.4427 32.5649 29.4 32.1102C29.47 31.6664 29.6894 31.2629 30.0191 30.9718C30.3488 30.6806 30.7674 30.5208 31.2 30.5208C31.6326 30.5208 32.0512 30.6806 32.3809 30.9718C32.7106 31.2629 32.9301 31.6664 33 32.1102C32.9573 32.5649 32.745 32.984 32.4085 33.2779C32.072 33.5717 31.6382 33.7167 31.2 33.6819Z" fill="#A70A00"/>
</svg>
