<svg width="44" height="44" viewBox="0 0 44 44" fill="none" xmlns="http://www.w3.org/2000/svg">
<path fill-rule="evenodd" clip-rule="evenodd" d="M21.1056 0.211146C21.6686 -0.0703819 22.3314 -0.0703819 22.8944 0.211146L42.8944 10.2111C43.572 10.5499 44 11.2425 44 12V32C44 32.7575 43.572 33.4501 42.8944 33.7889L22.8944 43.7889C22.3314 44.0704 21.6686 44.0704 21.1056 43.7889L1.10557 33.7889C0.428005 33.4501 2.09366e-09 32.7575 2.09366e-09 32V12C2.09366e-09 11.2425 0.428005 10.5499 1.10557 10.2111L21.1056 0.211146ZM4 13.2361V30.7639L22 39.7639L40 30.7639V13.2361L22 4.23607L4 13.2361Z" fill="#A70A00"/>
<path fill-rule="evenodd" clip-rule="evenodd" d="M0.211584 11.1056C0.705562 10.1176 1.90691 9.71718 2.89487 10.2112L22.8949 20.2112C23.8828 20.7051 24.2833 21.9065 23.7893 22.8944C23.2953 23.8824 22.094 24.2828 21.106 23.7889L1.10601 13.7889C0.118054 13.2949 -0.282395 12.0935 0.211584 11.1056Z" fill="#A70A00"/>
<path fill-rule="evenodd" clip-rule="evenodd" d="M22 20C23.1046 20 24 20.8954 24 22V42C24 43.1046 23.1046 44 22 44C20.8954 44 20 43.1046 20 42V22C20 20.8954 20.8954 20 22 20Z" fill="#A70A00"/>
<path fill-rule="evenodd" clip-rule="evenodd" d="M43.7893 11.1056C44.2833 12.0935 43.8828 13.2949 42.8949 13.7889L22.8949 23.7889C21.9069 24.2828 20.7056 23.8824 20.2116 22.8944C19.7176 21.9065 20.1181 20.7051 21.106 20.2112L41.106 10.2112C42.094 9.71718 43.2953 10.1176 43.7893 11.1056Z" fill="#A70A00"/>
<path fill-rule="evenodd" clip-rule="evenodd" d="M33.7893 6.10558C34.2833 7.09354 33.8828 8.29489 32.8949 8.78887L12.8949 18.7889C11.9069 19.2828 10.7056 18.8824 10.2116 17.8944C9.71761 16.9065 10.1181 15.7051 11.106 15.2112L31.106 5.21116C32.094 4.71718 33.2953 5.11763 33.7893 6.10558Z" fill="#A70A00"/>
</svg>
