<svg width="38" height="44" viewBox="0 0 38 44" fill="none" xmlns="http://www.w3.org/2000/svg">
<path d="M19 30.1053C8.5025 30.1053 0 34.2505 0 39.3684V44H38V39.3684C38 34.2505 29.4975 30.1053 19 30.1053ZM9.5 16.2105C9.5 18.6673 10.5009 21.0234 12.2825 22.7606C14.0641 24.4977 16.4804 25.4737 19 25.4737C21.5196 25.4737 23.9359 24.4977 25.7175 22.7606C27.4991 21.0234 28.5 18.6673 28.5 16.2105M17.8125 0C17.1 0 16.625 0.486316 16.625 1.15789V8.10526H14.25V2.31579C14.25 2.31579 8.90625 4.30737 8.90625 11C8.90625 11 7.125 11.3242 7.125 13.8947H30.875C30.7563 11.3242 29.0938 11 29.0938 11C29.0938 4.30737 23.75 2.31579 23.75 2.31579V8.10526H21.375V1.15789C21.375 0.486316 20.9237 0 20.1875 0H17.8125Z" fill="#A70A00"/>
</svg>
