<svg width="44" height="44" viewBox="0 0 44 44" fill="none" xmlns="http://www.w3.org/2000/svg">
<path d="M0 0V13.5248L1.76384 14.746L8.65952 13.1156C8.27733 12.7706 7.99948 12.5111 7.87322 12.3759C6.09174 10.4663 6.1934 7.4737 8.10252 5.69196C10.0116 3.91021 13.0051 4.01512 14.7865 5.92404C16.5687 7.8338 39.0074 38.8072 39.0074 38.8072C39.0074 38.8072 37.4277 37.4871 36.4603 36.6778L36.4631 36.6865L34.2091 37.2203L44 44L37.7309 34.9488L38.2241 33.5127L37.078 31.5864L37.052 31.5778L36.5036 33.1762L35.4535 31.659L36.0801 29.9039L34.9284 27.966L34.2377 29.904L32.9933 28.1082L33.7679 26.0108L32.6247 24.0873L31.7864 26.3645L30.3358 24.273L31.2293 21.7405L30.0776 19.7966L29.1173 22.5149L27.2838 19.8664L28.3572 16.9015L27.2113 14.9725L26.0713 18.1171L23.9273 15.0188L25.1746 11.5433L24.0258 9.6083L22.7146 13.2666L19.2594 8.28264L20.8724 4.29955L19.7584 2.42544L18.0788 6.57693L13.524 0.000185564H0V0ZM11.5258 6.36499C10.2777 6.36499 9.26582 7.37687 9.26582 8.62492C9.26582 9.87287 10.2777 10.8847 11.5259 10.8847C12.7739 10.8847 13.7858 9.87287 13.7858 8.62492C13.7858 7.37678 12.7739 6.36499 11.5258 6.36499ZM15.3756 11.378C14.984 11.3944 14.6035 11.5423 14.305 11.8247C13.6227 12.4704 13.6283 13.5815 14.3166 14.3022C15.0048 15.0229 26.2428 24.3223 26.2428 24.3223C26.2428 24.3223 17.4845 12.6903 16.7882 11.9583C16.4011 11.5529 15.8787 11.3569 15.3755 11.3781L15.3756 11.378ZM10.2521 14.5227L3.68132 16.0747L9.46606 20.081L15.1608 18.7349C13.2153 17.0781 11.5284 15.6345 10.2523 14.5226L10.2521 14.5227ZM16.7998 20.1303L11.3865 21.4095L15.0593 23.9538L19.9504 22.7992C18.8661 21.8826 17.8148 20.9917 16.7998 20.1303ZM21.5982 24.1917L16.977 25.2825L20.1477 27.4785L24.3252 26.4923C23.4139 25.7245 22.5057 24.9577 21.5982 24.1919V24.1917ZM25.9818 27.8846L22.0681 28.8101L24.6008 30.5623L28.1661 29.721C27.4497 29.1191 26.7211 28.5067 25.9817 27.8848L25.9818 27.8846ZM29.8227 31.1136L26.5183 31.8939L28.7144 33.4112L31.7171 32.7034C31.0731 32.1631 30.5147 31.6945 29.8227 31.1136ZM33.3764 34.0929L30.632 34.7427L32.2914 35.8887L34.8095 35.294C34.297 34.8648 33.9615 34.5833 33.3764 34.0928V34.0929Z" fill="#A70A00"/>
</svg>
