<svg width="36" height="36" viewBox="0 0 36 36" fill="none" xmlns="http://www.w3.org/2000/svg">
<path d="M0 0V11.0658L1.44314 12.0649L7.08507 10.731C6.77236 10.4487 6.54503 10.2363 6.44173 10.1258C4.98415 8.56338 5.06733 6.11484 6.62934 4.65705C8.19135 3.19927 10.6405 3.28509 12.0981 4.84694C13.5562 6.40947 31.9152 31.7514 31.9152 31.7514C31.9152 31.7514 30.6226 30.6713 29.8312 30.0091L29.8335 30.0163L27.9893 30.453L36 36L30.8708 28.5945L31.2742 27.4195L30.3366 25.8434L30.3153 25.8364L29.8666 27.1442L29.0074 25.9028L29.5201 24.4668L28.5778 22.8813L28.0127 24.4669L26.9945 22.9976L27.6283 21.2816L26.693 19.7078L26.0071 21.571L24.8202 19.8597L25.5513 17.7877L24.609 16.1972L23.8232 18.4213L22.3231 16.2543L23.2014 13.8285L22.2638 12.2502L21.3311 14.8231L19.5769 12.2881L20.5974 9.44452L19.6575 7.86133L18.5847 10.8545L15.7577 6.77671L17.0775 3.51782L16.166 1.98445L14.7917 5.38113L11.0651 0.000151825H0V0ZM9.43017 5.20772C8.40903 5.20772 7.58113 6.03562 7.58113 7.05675C7.58113 8.0778 8.40903 8.9057 9.43025 8.9057C10.4514 8.9057 11.2793 8.0778 11.2793 7.05675C11.2793 6.03555 10.4514 5.20772 9.43017 5.20772ZM12.58 9.30925C12.2596 9.32269 11.9483 9.44369 11.7041 9.67474C11.1458 10.2031 11.1504 11.1122 11.7136 11.7018C12.2767 12.2914 21.4714 19.9001 21.4714 19.9001C21.4714 19.9001 14.3055 10.383 13.7358 9.78404C13.4191 9.45235 12.9917 9.29201 12.5799 9.30932L12.58 9.30925ZM8.38807 11.8822L3.01199 13.152L7.74496 16.4299L12.4043 15.3285C10.8125 13.973 9.4323 12.7919 8.38822 11.8821L8.38807 11.8822ZM13.7453 16.4702L9.31624 17.5169L12.3212 19.5985L16.3231 18.6539C15.4359 17.9039 14.5757 17.1751 13.7453 16.4702ZM17.6713 19.7932L13.8902 20.6857L16.4845 22.4824L19.9024 21.6755C19.1568 21.0474 18.4137 20.42 17.6713 19.7934V19.7932ZM21.2579 22.8147L18.0558 23.5719L20.128 25.0056L23.045 24.3172C22.4589 23.8247 21.8628 23.3237 21.2578 22.8148L21.2579 22.8147ZM24.4004 25.4566L21.6968 26.095L23.4936 27.3364L25.9503 26.7573C25.4234 26.3152 24.9666 25.9319 24.4004 25.4566ZM27.308 27.8942L25.0625 28.4258L26.4202 29.3635L28.4805 28.8769C28.0612 28.5257 27.7867 28.2954 27.308 27.8941V27.8942Z" fill="#A70A00"/>
</svg>
