<svg width="22" height="16" viewBox="0 0 22 16" fill="none" xmlns="http://www.w3.org/2000/svg">
<path d="M22 13.5001C22 14.1484 21.7425 14.7702 21.284 15.2286C20.8256 15.687 20.2039 15.9446 19.5556 15.9446H2.44444C1.79614 15.9446 1.17438 15.687 0.715961 15.2286C0.257539 14.7702 0 14.1484 0 13.5001V11.0557H22V13.5001Z" fill="#CE2028"/>
<path d="M0 4.94458H22V11.0557H0V4.94458Z" fill="#22408C"/>
<path d="M19.5556 0.0556641H2.44444C1.79614 0.0556641 1.17438 0.313203 0.715961 0.771625C0.257539 1.23005 0 1.8518 0 2.50011L0 4.94455H22V2.50011C22 1.8518 21.7425 1.23005 21.284 0.771625C20.8256 0.313203 20.2039 0.0556641 19.5556 0.0556641Z" fill="#EEEEEE"/>
</svg>
