<svg width="23" height="15" viewBox="0 0 23 15" fill="none" xmlns="http://www.w3.org/2000/svg">
<path d="M0.09281 7.28437C0.0307311 10.2953 2.1046 13.1688 4.95742 14.1059C7.64459 15.0087 10.9485 14.3333 12.7366 12.032C14.0421 10.4195 14.3388 8.26983 14.1975 6.26147C11.8962 6.24088 9.59493 6.24774 7.29708 6.25117C7.29333 7.07099 7.29708 7.88768 7.30051 8.7075C8.67841 8.74556 10.0566 8.72809 11.4345 8.75585C11.0867 9.94783 10.2943 11.0571 9.09175 11.4876C6.76987 12.5108 3.80725 11.1741 3.07665 8.73838C2.19476 6.4059 3.63848 3.59114 6.02212 2.91264C7.50016 2.39261 9.02281 2.97815 10.2875 3.74649C10.9282 3.14692 11.5278 2.50616 12.1168 1.85855C10.6799 0.656277 8.83345 -0.0808715 6.93521 0.0810326C3.21079 0.12533 -0.0485052 3.56369 0.09281 7.28437Z" fill="#DC4E41"/>
<path d="M18.6762 4.18262C18.6694 4.86829 18.6622 5.5574 18.6588 6.24276C17.9697 6.24963 17.2843 6.25306 16.5986 6.25649C16.5986 6.94216 16.5986 7.62409 16.5986 8.30977C17.2843 8.3132 17.9734 8.31663 18.6588 8.32381C18.6656 9.00948 18.6656 9.69485 18.6725 10.384C19.3547 10.384 20.0404 10.3805 20.7258 10.384C20.7295 9.69485 20.7326 9.00948 20.7398 8.32038C21.4252 8.31695 22.1143 8.31351 22.8 8.31008C22.8 7.62441 22.8 6.94248 22.8 6.2568C22.1146 6.25337 21.4255 6.24994 20.7398 6.24307C20.7361 5.5574 20.7295 4.86829 20.7258 4.18293C20.0404 4.18262 19.3582 4.18262 18.6762 4.18262Z" fill="#DC4E41"/>
<path d="M0.0928104 7.28321C-0.0485048 3.56254 3.21048 0.124177 6.9349 0.0795678C8.83314 -0.0823364 10.6799 0.654812 12.1165 1.85708C11.5272 2.50501 10.9276 3.14545 10.2872 3.74503C9.0225 2.97669 7.49985 2.39115 6.02181 2.91117C3.63786 3.58999 2.19413 6.40475 3.07634 8.73692C3.80694 11.1727 6.76956 12.5094 9.09144 11.4862C10.2937 11.0557 11.0864 9.94636 11.4342 8.75439C10.0563 8.72694 8.6781 8.74409 7.3002 8.70603C7.29677 7.88622 7.29333 7.06952 7.29677 6.24971C9.59462 6.24628 11.8959 6.23941 14.1972 6.26C14.3385 8.26867 14.0421 10.4183 12.7363 12.0305C10.9482 14.3318 7.6446 15.0072 4.95711 14.1044C2.10491 13.1676 0.0307315 10.2942 0.0928104 7.28321Z" fill="white"/>
<path d="M18.6762 4.18262C19.3585 4.18262 20.0404 4.18262 20.7258 4.18262C20.7295 4.86829 20.7361 5.5574 20.7398 6.24276C21.4252 6.24962 22.1143 6.25306 22.8 6.25649C22.8 6.94216 22.8 7.62409 22.8 8.30977C22.1146 8.3132 21.4255 8.31663 20.7398 8.32006C20.733 9.00917 20.7295 9.69453 20.7258 10.3836C20.0404 10.3802 19.3544 10.3836 18.6725 10.3836C18.666 9.69453 18.666 9.00917 18.6588 8.3235C17.9734 8.31632 17.2843 8.3132 16.5986 8.30946C16.5986 7.62378 16.5986 6.94185 16.5986 6.25618C17.2843 6.25274 17.97 6.24931 18.6588 6.24245C18.6622 5.5574 18.6691 4.86829 18.6762 4.18262Z" fill="white"/>
</svg>
