<svg width="36" height="36" viewBox="0 0 36 36" fill="none" xmlns="http://www.w3.org/2000/svg">
<path d="M2.73139 26.9067V33.2686H9.09331L27.8567 14.4882L21.4948 8.1263L2.73139 26.9067ZM36 28.7898L28.7898 36L19.968 27.1781L22.9708 24.1753L24.6673 25.8718L28.8577 21.6645L31.2667 24.0735L28.7898 26.4826L30.5881 28.1791L32.9972 25.804L36 28.7898ZM8.8558 16.0151L0 7.21018L7.21018 0L10.196 3.00283L6.00565 7.21018L7.82092 9.00848L11.9943 4.80113L14.4034 7.21018L11.9943 9.60226L13.6909 11.2988L8.8558 16.0151ZM32.7766 9.51744C33.4383 8.8558 33.4383 7.82092 32.7766 7.12535L28.8068 3.22337C28.1791 2.56173 27.0763 2.56173 26.4147 3.22337L23.2931 6.32799L29.655 12.6899L32.7766 9.51744Z" fill="#A70A00"/>
</svg>
