<svg width="36" height="34" viewBox="0 0 36 34" fill="none" xmlns="http://www.w3.org/2000/svg">
<path fill-rule="evenodd" clip-rule="evenodd" d="M25.6067 0.490426C25.9207 0.176411 26.3466 0 26.7907 0H33.4884C34.4131 0 35.1628 0.749663 35.1628 1.67442C35.1628 2.59917 34.4131 3.34884 33.4884 3.34884H27.4843L24.1354 6.69767L27.4843 10.0465H33.4884C34.4131 10.0465 35.1628 10.7962 35.1628 11.7209C35.1628 12.6457 34.4131 13.3953 33.4884 13.3953H26.7907C26.3466 13.3953 25.9207 13.2189 25.6067 12.9049L20.5834 7.88167C19.9295 7.22777 19.9295 6.16758 20.5834 5.51368L25.6067 0.490426ZM1.81806 23.5855C2.44609 22.9575 3.29788 22.6047 4.18605 22.6047H32.6512C33.5393 22.6047 34.3911 22.9575 35.0191 23.5855C35.6472 24.2135 36 25.0653 36 25.9535V31.814C36 32.7387 35.2503 33.4884 34.3256 33.4884H2.51163C1.58687 33.4884 0.837209 32.7387 0.837209 31.814V25.9535C0.837209 25.0653 1.19003 24.2135 1.81806 23.5855ZM32.6512 25.9535L4.18605 25.9535V30.1395H32.6512V25.9535Z" fill="#A70A00"/>
<path fill-rule="evenodd" clip-rule="evenodd" d="M5.02326 5.02326C4.0985 5.02326 3.34884 5.77292 3.34884 6.69767C3.34884 7.62243 4.0985 8.37209 5.02326 8.37209C5.94801 8.37209 6.69767 7.62243 6.69767 6.69767C6.69767 5.77292 5.94801 5.02326 5.02326 5.02326ZM0 6.69767C0 3.92341 2.24899 1.67442 5.02326 1.67442C7.79752 1.67442 10.0465 3.92341 10.0465 6.69767C10.0465 9.47194 7.79752 11.7209 5.02326 11.7209C2.24899 11.7209 0 9.47194 0 6.69767Z" fill="#A70A00"/>
<path fill-rule="evenodd" clip-rule="evenodd" d="M6.69767 6.69767C6.69767 5.77292 7.44732 5.02326 8.37208 5.02326H21.7674C22.6922 5.02326 23.4418 5.77292 23.4418 6.69767C23.4418 7.62243 22.6922 8.37209 21.7674 8.37209H8.37208C7.44732 8.37209 6.69767 7.62243 6.69767 6.69767ZM5.9847 8.53147C6.82143 8.13771 7.81895 8.49681 8.21271 9.33355L14.9104 23.5661C15.3041 24.4028 14.945 25.4004 14.1083 25.7941C13.2716 26.1879 12.274 25.8288 11.8803 24.992L5.18262 10.7595C4.78886 9.92274 5.14796 8.92523 5.9847 8.53147Z" fill="#A70A00"/>
</svg>
