<svg width="15" height="25" viewBox="0 0 15 25" fill="none" xmlns="http://www.w3.org/2000/svg">
<path fill-rule="evenodd" clip-rule="evenodd" d="M13.4648 6.24381C13.4823 2.79752 10.7464 0.00933304 7.33773 2.35738e-05C3.9362 -0.00928589 1.17236 2.73987 1.15339 6.15036C1.13333 9.52396 3.89574 12.3164 7.26397 12.3279C10.6669 12.3394 13.4476 9.61061 13.4648 6.24381ZM7.32924 9.18188C9.00029 9.17579 10.3312 7.83344 10.3251 6.15881C10.319 4.48346 8.98525 3.15042 7.31348 3.14899C5.62775 3.1472 4.28146 4.50495 4.29435 6.19533C4.30688 7.86387 5.65282 9.18796 7.32924 9.18188Z" fill="white"/>
<path d="M11.5732 16.4742C12.5808 16.0836 13.4881 15.5236 14.2418 14.7498C14.7334 14.2446 14.738 13.6101 14.3388 12.9595C13.9901 12.3902 13.3828 12.1507 12.7326 12.3182C12.3978 12.4038 12.1088 12.5735 11.8389 12.7798C9.1119 14.6141 5.38024 14.5629 2.66402 12.6963C2.53083 12.6047 2.3919 12.518 2.24581 12.4496C1.49211 12.0941 0.767401 12.2595 0.335227 12.8782C-0.169274 13.6008 -0.105183 14.3029 0.533232 14.9156C0.666653 15.0444 0.814406 15.1586 0.962026 15.2727C0.996641 15.2994 1.03125 15.3262 1.06566 15.3531C2.52331 16.4928 4.22587 16.9576 6.1139 17.1549C6.06621 17.206 6.02468 17.2513 5.98681 17.2927C5.91861 17.3672 5.86227 17.4287 5.8031 17.4879C5.60552 17.686 5.40794 17.8843 5.21035 18.0825C4.0237 19.273 2.83682 20.4637 1.64679 21.6513C1.35963 21.9371 1.1541 22.2572 1.13333 22.6747C1.10397 23.2937 1.48709 23.9092 2.0897 24.2007C2.65686 24.4764 3.23835 24.389 3.72709 23.9071C4.81523 22.834 5.89727 21.7552 6.96177 20.6588C7.22853 20.3845 7.37318 20.3244 7.67574 20.6402C8.37579 21.3731 9.09512 22.0883 9.81452 22.8035C10.16 23.1469 10.5055 23.4904 10.8488 23.8358C11.1249 24.114 11.436 24.312 11.8349 24.3396C12.4647 24.3829 13.1067 23.9805 13.3928 23.3682C13.6549 22.8086 13.5557 22.2113 13.0795 21.7294C12.2164 20.8563 11.3489 19.9874 10.4813 19.1185C9.9442 18.5806 9.40707 18.0426 8.87093 17.5036C8.79946 17.4321 8.7409 17.3682 8.65295 17.2721C8.62106 17.2373 8.58531 17.1982 8.54367 17.1531C9.57702 17.0292 10.6208 16.8433 11.5732 16.4742Z" fill="white"/>
</svg>
