<svg width="21" height="21" viewBox="0 0 21 21" fill="none" xmlns="http://www.w3.org/2000/svg">
<path d="M20.3917 19.4932L18.3795 10.5637C18.3524 10.443 18.2915 10.3327 18.2041 10.2453L8.14888 0.191371C7.95783 0.000323992 7.66889 -0.0534282 7.42185 0.0561903C4.2137 1.47982 1.60118 4.0047 0.0656878 7.16588C-0.0559752 7.41639 -0.0055542 7.71654 0.191387 7.91342L10.3715 18.0931C10.4589 18.1806 10.5695 18.2414 10.6902 18.2685L19.6109 20.2744C19.6585 20.285 19.7065 20.2903 19.7543 20.2903C19.9256 20.2903 20.0925 20.2228 20.2164 20.0988C20.3748 19.9404 20.4409 19.7118 20.3917 19.4932ZM11.9433 17.2109L14.191 14.9632C14.4461 14.708 14.4461 14.2943 14.191 14.0391C13.9358 13.784 13.522 13.784 13.2669 14.0391L10.7162 16.5897L1.45037 7.32426C2.80346 4.76453 4.94444 2.69767 7.54761 1.43818L17.1463 11.0356L18.8898 18.7728L11.9433 17.2109Z" fill="#FBFBFB"/>
</svg>
