<svg width="30" height="30" viewBox="0 0 30 30" fill="none" xmlns="http://www.w3.org/2000/svg">
<circle cx="15" cy="15" r="15" fill="#A70A00"/>
<path d="M22.1111 15C21.8741 15 21.6631 14.9147 21.4782 14.744C21.2927 14.5739 21.1852 14.363 21.1556 14.1111C20.963 12.7333 20.3816 11.5591 19.4116 10.5884C18.4409 9.61837 17.2667 9.03704 15.8889 8.84444C15.637 8.81481 15.4261 8.71111 15.256 8.53333C15.0853 8.35556 15 8.14074 15 7.88889C15 7.63704 15.0889 7.42578 15.2667 7.25511C15.4444 7.08504 15.6519 7.01481 15.8889 7.04444C17.7556 7.25185 19.3481 8.01481 20.6667 9.33333C21.9852 10.6519 22.7481 12.2444 22.9556 14.1111C22.9852 14.3481 22.9147 14.5556 22.744 14.7333C22.5739 14.9111 22.363 15 22.1111 15ZM18.4 15C18.2074 15 18.037 14.9333 17.8889 14.8C17.7407 14.6667 17.6296 14.4889 17.5556 14.2667C17.437 13.837 17.2113 13.4554 16.8782 13.1218C16.5446 12.7887 16.163 12.563 15.7333 12.4444C15.5111 12.3704 15.3333 12.2593 15.2 12.1111C15.0667 11.963 15 11.7852 15 11.5778C15 11.2815 15.1037 11.0406 15.3111 10.8551C15.5185 10.6702 15.7481 10.6074 16 10.6667C16.8296 10.8593 17.5446 11.2554 18.1449 11.8551C18.7446 12.4554 19.1407 13.1704 19.3333 14C19.3926 14.2519 19.3259 14.4815 19.1333 14.6889C18.9407 14.8963 18.6963 15 18.4 15ZM22.0667 23C20.1556 23 18.2927 22.5739 16.4782 21.7218C14.6631 20.8702 13.0557 19.7443 11.656 18.344C10.2557 16.9443 9.12978 15.3369 8.27822 13.5218C7.42607 11.7073 7 9.84444 7 7.93333C7 7.66667 7.08889 7.44444 7.26667 7.26667C7.44444 7.08889 7.66667 7 7.93333 7H11.5333C11.7407 7 11.9259 7.06667 12.0889 7.2C12.2519 7.33333 12.3481 7.5037 12.3778 7.71111L12.9556 10.8222C12.9852 11.0296 12.9816 11.2184 12.9449 11.3884C12.9076 11.5591 12.8222 11.7111 12.6889 11.8444L10.5556 14.0222C11.1778 15.0889 11.9556 16.0889 12.8889 17.0222C13.8222 17.9556 14.8519 18.763 15.9778 19.4444L18.0667 17.3556C18.2 17.2222 18.3742 17.1221 18.5893 17.0551C18.8039 16.9887 19.0148 16.9704 19.2222 17L22.2889 17.6222C22.4963 17.6667 22.6667 17.7665 22.8 17.9218C22.9333 18.0776 23 18.2593 23 18.4667V22.0667C23 22.3333 22.9111 22.5556 22.7333 22.7333C22.5556 22.9111 22.3333 23 22.0667 23Z" fill="white"/>
</svg>
