<svg width="36" height="36" viewBox="0 0 36 36" fill="none" xmlns="http://www.w3.org/2000/svg">
<path d="M23.625 0L36 6.19408V20.0076L33.75 18.8814V8.71042L24.75 13.2152V17.7552L22.5 18.8814V13.2152L13.5 8.71042V12.7049L11.25 11.5787V6.19408L23.625 0ZM23.625 11.262L26.7363 9.69584L18.5977 5.03269L14.8887 6.89795L23.625 11.262ZM29.1621 8.49926L32.3613 6.89795L23.625 2.51634L21.0059 3.83611L29.1621 8.49926ZM20.25 20.0076L18 21.1338V21.1162L11.25 24.4948V32.5013L18 29.1051V31.6391L10.125 35.5808L0 30.4953V18.5998L10.125 13.532L20.25 18.5998V20.0076ZM9 32.5013V24.4948L2.25 21.1162V29.1051L9 32.5013ZM10.125 22.5415L16.6113 19.3037L10.125 16.0483L3.63867 19.3037L10.125 22.5415ZM20.25 22.5239L28.125 18.5822L36 22.5239V31.7974L28.125 35.7391L20.25 31.7974V22.5239ZM27 32.6597V27.2927L22.5 25.0403V30.4073L27 32.6597ZM33.75 30.4073V25.0403L29.25 27.2927V32.6597L33.75 30.4073ZM28.125 25.3394L32.3613 23.2102L28.125 21.0986L23.8887 23.2102L28.125 25.3394Z" fill="#A70A00"/>
</svg>
