<svg width="43" height="30" viewBox="0 0 43 30" fill="none" xmlns="http://www.w3.org/2000/svg">
<path fill-rule="evenodd" clip-rule="evenodd" d="M9.8 0C10.9046 0 11.8 0.89543 11.8 2V3.41839C12.6138 5.08903 13.9029 6.52973 15.5412 7.5699C17.2978 8.68522 19.3714 9.28571 21.5 9.28571C23.6286 9.28571 25.7022 8.68522 27.4588 7.5699C29.0971 6.52973 30.3862 5.08903 31.2 3.41839V2C31.2 0.89543 32.0954 0 33.2 0C34.3046 0 35.2 0.89543 35.2 2V3.01748C36.4771 4.19046 38.0084 5.10057 39.6981 5.67935C40.7431 6.03729 41.3 7.17456 40.9421 8.21953C40.5841 9.2645 39.4469 9.82144 38.4019 9.46351C37.2795 9.07905 36.2063 8.58102 35.2 7.97961V18.5714H41C42.1046 18.5714 43 19.4669 43 20.5714C43 21.676 42.1046 22.5714 41 22.5714H35.2V28C35.2 29.1046 34.3046 30 33.2 30C32.0954 30 31.2 29.1046 31.2 28V22.5714H11.8V28C11.8 29.1046 10.9046 30 9.8 30C8.69543 30 7.8 29.1046 7.8 28V22.5714H2C0.89543 22.5714 0 21.676 0 20.5714C0 19.4669 0.89543 18.5714 2 18.5714H7.8V7.97961C6.79367 8.58102 5.7205 9.07905 4.5981 9.46351C3.55314 9.82144 2.41586 9.2645 2.05792 8.21953C1.69998 7.17456 2.25693 6.03729 3.3019 5.67935C4.99159 5.10057 6.52295 4.19046 7.8 3.01748V2C7.8 0.89543 8.69543 0 9.8 0ZM11.8 9.77408V18.5714H19.5V13.1545C17.3303 12.8683 15.2428 12.1186 13.3972 10.9467C12.8358 10.5903 12.3023 10.1983 11.8 9.77408ZM23.5 13.1545V18.5714H31.2V9.77408C30.6977 10.1983 30.1642 10.5903 29.6028 10.9467C27.7572 12.1186 25.6697 12.8683 23.5 13.1545Z" fill="#A70A00"/>
</svg>
