<svg width="29" height="38" viewBox="0 0 29 38" fill="none" xmlns="http://www.w3.org/2000/svg">
<path d="M9.06324 14.4771C9.08201 13.0432 9.66084 11.6733 10.6764 10.6593C11.6919 9.64536 13.0639 9.06742 14.5 9.04868C15.9361 9.06742 17.3081 9.64536 18.3236 10.6593C19.3392 11.6733 19.918 13.0432 19.9368 14.4771C19.918 15.9109 19.3392 17.2808 18.3236 18.2948C17.3081 19.3087 15.9361 19.8867 14.5 19.9054C13.0639 19.8867 11.6919 19.3087 10.6764 18.2948C9.66084 17.2808 9.08201 15.9109 9.06324 14.4771ZM14.5 30.7622L21.749 32.5716V26.9985C19.5629 28.313 17.0517 28.99 14.5 28.9527C11.9483 28.99 9.43715 28.313 7.25098 26.9985V32.5716M14.5 3.62031C13.0719 3.59429 11.6535 3.86017 10.3321 4.40161C9.01071 4.94305 7.81417 5.74861 6.81604 6.76876C5.78326 7.76644 4.96713 8.96563 4.41841 10.2917C3.86969 11.6178 3.60012 13.0425 3.62647 14.4771C3.60759 15.9025 3.88079 17.3168 4.42928 18.6331C4.97778 19.9493 5.79 21.1397 6.81604 22.1311C7.80951 23.161 9.00397 23.9766 10.3256 24.5275C11.6472 25.0784 13.068 25.3528 14.5 25.3338C15.932 25.3528 17.3528 25.0784 18.6744 24.5275C19.996 23.9766 21.1905 23.161 22.184 22.1311C23.21 21.1397 24.0222 19.9493 24.5707 18.6331C25.1192 17.3168 25.3924 15.9025 25.3735 14.4771C25.3999 13.0425 25.1303 11.6178 24.5816 10.2917C24.0329 8.96563 23.2167 7.76644 22.184 6.76876C21.1858 5.74861 19.9893 4.94305 18.6679 4.40161C17.3465 3.86017 15.9281 3.59429 14.5 3.62031ZM28.998 14.4771C28.9594 16.2139 28.6096 17.9298 27.9651 19.5435C27.3844 21.1855 26.5059 22.7067 25.3735 24.031V38L14.5 34.3811L3.62647 38V24.031C1.28085 21.4009 -0.00981552 17.9988 0.00196269 14.4771C-0.0299781 12.5782 0.328235 10.6929 1.05449 8.93766C1.78074 7.18241 2.85962 5.59441 4.22452 4.27171C5.55417 2.8967 7.15197 1.80838 8.91927 1.07391C10.6866 0.339447 12.5859 -0.0255699 14.5 0.00139182C16.4141 -0.0255699 18.3134 0.339447 20.0807 1.07391C21.848 1.80838 23.4458 2.8967 24.7755 4.27171C26.1404 5.59441 27.2193 7.18241 27.9455 8.93766C28.6718 10.6929 29.03 12.5782 28.998 14.4771Z" fill="#A70A00"/>
</svg>
