<svg width="36" height="36" viewBox="0 0 36 36" fill="none" xmlns="http://www.w3.org/2000/svg">
<path fill-rule="evenodd" clip-rule="evenodd" d="M9.93772 3.7228C9.29662 3.55079 8.62044 3.55938 7.98391 3.74763C7.34739 3.93588 6.7753 4.29646 6.33089 4.78951C5.88648 5.28257 5.58705 5.8889 5.46569 6.54149C5.34433 7.19408 5.40577 7.86752 5.64322 8.48738C5.88066 9.10723 6.28487 9.64937 6.81117 10.0539C7.59934 10.6596 7.7472 11.7896 7.14144 12.5778C6.53567 13.366 5.40566 13.5138 4.61749 12.9081C3.5649 12.0991 2.75649 11.0148 2.28159 9.7751C1.8067 8.53539 1.68382 7.18851 1.92654 5.88333C2.16926 4.57815 2.76813 3.36549 3.65695 2.37938C4.54577 1.39327 5.68993 0.67211 6.96299 0.295608C8.23604 -0.0808937 9.5884 -0.0980777 10.8706 0.245956C12.1528 0.589989 13.3149 1.28184 14.2285 2.24505C15.1421 3.20826 15.7716 4.40531 16.0474 5.7039C16.3232 7.00249 16.2346 8.35206 15.7914 9.60344C15.4595 10.5405 14.4308 11.031 13.4938 10.6991C12.5568 10.3672 12.0662 9.33857 12.3981 8.40155C12.6197 7.77586 12.664 7.10107 12.5261 6.45178C12.3882 5.80248 12.0735 5.20395 11.6167 4.72235C11.1599 4.24075 10.5788 3.89482 9.93772 3.7228ZM23.4021 14.4004C24.3961 14.4004 25.202 15.2063 25.202 16.2003V16.2183C25.202 17.2124 24.3961 18.0183 23.4021 18.0183C22.408 18.0183 21.6022 17.2124 21.6022 16.2183V16.2003C21.6022 15.2063 22.408 14.4004 23.4021 14.4004Z" fill="#A70A00"/>
<path fill-rule="evenodd" clip-rule="evenodd" d="M24.2021 2.10331C24.4978 1.90619 24.8452 1.80101 25.2005 1.80101H25.2023C26.1964 1.80101 27.0022 2.60686 27.0022 3.60092V9.4598C28.8036 10.7157 30.2457 12.4194 31.1871 14.4004H32.4002C33.3549 14.4004 34.2705 14.7797 34.9456 15.4548C35.6207 16.1299 36 17.0455 36 18.0002V21.6001C36 22.5548 35.6207 23.4704 34.9456 24.1455C34.2705 24.8206 33.3549 25.1999 32.4002 25.1999H31.1861C30.5863 26.4633 29.7796 27.6185 28.8003 28.6187V31.4996C28.8003 32.693 28.3263 33.8375 27.4824 34.6814C26.6385 35.5253 25.494 35.9994 24.3006 35.9994C23.1071 35.9994 21.9626 35.5253 21.1187 34.6814C20.4902 34.0528 20.0667 33.2574 19.8916 32.3992C19.8613 32.3994 19.8311 32.3995 19.8008 32.3995M19.8008 32.3995H12.6018C12.5715 32.3995 12.5406 32.3994 12.5103 32.3992C12.3352 33.2574 11.9118 34.0528 11.2832 34.6814C10.4393 35.5253 9.29477 35.9994 8.10135 35.9994C6.90793 35.9994 5.76339 35.5253 4.91952 34.6814C4.07565 33.8375 3.60157 32.693 3.60157 31.4996V28.6197C2.01642 27.0025 0.892607 24.9838 0.355828 22.7733C-0.246409 20.2933 -0.0813116 17.6888 0.829268 15.3047C1.73985 12.9206 3.35297 10.8692 5.45512 9.42208C7.55719 7.97502 10.0491 7.2004 12.6011 7.20075H16.5559L24.2021 2.10331M23.4024 6.96289V10.446C23.4024 11.0884 23.7448 11.6821 24.3009 12.0039C26.1584 13.0787 27.5726 14.7797 28.2902 16.8022C28.545 17.5204 29.2245 18.0002 29.9865 18.0002H32.4002V21.6001H29.9847C29.222 21.6001 28.5421 22.0807 28.2878 22.7998C27.7843 24.2234 26.9278 25.4994 25.7992 26.5107C25.4182 26.8521 25.2005 27.3396 25.2005 27.8511V31.4996C25.2005 31.7383 25.1057 31.9672 24.9369 32.1359C24.7682 32.3047 24.5392 32.3995 24.3006 32.3995C24.0619 32.3995 23.833 32.3047 23.6642 32.1359C23.4954 31.9672 23.4006 31.7383 23.4006 31.4996V30.4502C23.4006 29.9209 23.1676 29.4184 22.7635 29.0764C22.3595 28.7344 21.8254 28.5876 21.3033 28.675C20.807 28.7582 20.3046 28.7999 19.8014 28.7997H12.6011C12.0979 28.7999 11.5949 28.7582 11.0986 28.675C10.5765 28.5876 10.0424 28.7344 9.63837 29.0764C9.23432 29.4184 9.00131 29.9209 9.00131 30.4502V31.4996C9.00131 31.7383 8.90649 31.9672 8.73771 32.1359C8.56894 32.3047 8.34003 32.3995 8.10135 32.3995C7.86267 32.3995 7.63376 32.3047 7.46498 32.1359C7.29621 31.9672 7.20139 31.7383 7.20139 31.4996V27.8511C7.20139 27.3388 6.98307 26.8508 6.60113 26.5093C5.24214 25.2943 4.28416 23.6953 3.85399 21.9238C3.42382 20.1524 3.54175 18.2921 4.19216 16.5891C4.84257 14.8862 5.99481 13.4209 7.49634 12.3872C8.99788 11.3536 10.7779 10.8003 12.6008 10.8006H17.1009C17.4563 10.8006 17.8037 10.6954 18.0993 10.4983L23.4024 6.96289Z" fill="#A70A00"/>
</svg>
