<svg width="36" height="42" viewBox="0 0 36 42" fill="none" xmlns="http://www.w3.org/2000/svg">
<path d="M4.15 22H10C10.3667 22 10.7167 22.092 11.05 22.276C11.3833 22.46 11.6333 22.7347 11.8 23.1L14 27.5L20.2 15.1C20.5667 14.3333 21.1667 13.95 22 13.95C22.8333 13.95 23.4333 14.3333 23.8 15.1L27.25 22H31.85C31.35 18.6 29.8 15.75 27.2 13.45C24.6 11.15 21.5333 10 18 10C14.4667 10 11.4 11.15 8.8 13.45C6.2 15.75 4.65 18.6 4.15 22ZM18 38C21.5333 38 24.6 36.85 27.2 34.55C29.8 32.25 31.35 29.4 31.85 26H26C25.6333 26 25.2833 25.908 24.95 25.724C24.6167 25.54 24.3667 25.2653 24.2 24.9L22 20.5L15.8 32.9C15.4333 33.6667 14.8333 34.05 14 34.05C13.1667 34.05 12.5667 33.6667 12.2 32.9L8.75 26H4.15C4.65 29.4 6.2 32.25 8.8 34.55C11.4 36.85 14.4667 38 18 38ZM18 42C15.5333 42 13.208 41.5247 11.024 40.574C8.84 39.6233 6.932 38.332 5.3 36.7C3.66667 35.0667 2.37467 33.158 1.424 30.974C0.473336 28.79 -0.00133053 26.4653 2.80112e-06 24H4C4 27.8667 5.36667 31.1667 8.1 33.9C10.8333 36.6333 14.1333 38 18 38C21.8667 38 25.1667 36.6333 27.9 33.9C30.6333 31.1667 32 27.8667 32 24H36C36 26.4667 35.5247 28.792 34.574 30.976C33.6233 33.16 32.332 35.068 30.7 36.7C29.0667 38.3333 27.158 39.6253 24.974 40.576C22.79 41.5267 20.4653 42.0013 18 42ZM2.80112e-06 24C2.80112e-06 21.5333 0.475336 19.208 1.426 17.024C2.37667 14.84 3.668 12.932 5.3 11.3C6.93334 9.66667 8.842 8.37467 11.026 7.42401C13.21 6.47334 15.5347 5.99867 18 6.00001C20.0667 6.00001 22.05 6.33334 23.95 7.00001C25.85 7.66667 27.6333 8.63334 29.3 9.90001L30.7 8.50001C31.0667 8.13334 31.5333 7.95001 32.1 7.95001C32.6667 7.95001 33.1333 8.13334 33.5 8.50001C33.8667 8.86667 34.05 9.33334 34.05 9.90001C34.05 10.4667 33.8667 10.9333 33.5 11.3L32.1 12.7C33.3667 14.3667 34.3333 16.15 35 18.05C35.6667 19.95 36 21.9333 36 24H32C32 20.1333 30.6333 16.8333 27.9 14.1C25.1667 11.3667 21.8667 10 18 10C14.1333 10 10.8333 11.3667 8.1 14.1C5.36667 16.8333 4 20.1333 4 24H2.80112e-06ZM14 4.00001C13.4333 4.00001 12.958 3.80801 12.574 3.42401C12.19 3.04001 11.9987 2.56534 12 2.00001C12 1.43334 12.192 0.958007 12.576 0.574007C12.96 0.190007 13.4347 -0.00132641 14 6.92042e-06H22C22.5667 6.92042e-06 23.042 0.192007 23.426 0.576007C23.81 0.960007 24.0013 1.43467 24 2.00001C24 2.56667 23.808 3.04201 23.424 3.42601C23.04 3.81001 22.5653 4.00134 22 4.00001H14ZM18 38C14.1333 38 10.8333 36.6333 8.1 33.9C5.36667 31.1667 4 27.8667 4 24C4 20.1333 5.36667 16.8333 8.1 14.1C10.8333 11.3667 14.1333 10 18 10C21.8667 10 25.1667 11.3667 27.9 14.1C30.6333 16.8333 32 20.1333 32 24C32 27.8667 30.6333 31.1667 27.9 33.9C25.1667 36.6333 21.8667 38 18 38Z" fill="#A70A00"/>
</svg>
