<svg width="22" height="18" viewBox="0 0 22 18" fill="none" xmlns="http://www.w3.org/2000/svg">
<path d="M21.2193 2.5768C20.4693 2.90935 19.6626 3.13426 18.8166 3.23471C19.6804 2.71718 20.3433 1.8983 20.6562 0.920949C19.8479 1.40042 18.9523 1.74825 17.9999 1.93574C17.2369 1.1231 16.1497 0.615234 14.9459 0.615234C12.6362 0.615234 10.7629 2.48852 10.7629 4.79823C10.7629 5.12609 10.8 5.44522 10.8717 5.75156C7.39533 5.57718 4.31291 3.91196 2.24965 1.38046C1.88965 1.99813 1.68314 2.71718 1.68314 3.48365C1.68314 4.93455 2.42216 6.21543 3.54394 6.96537C2.85858 6.94385 2.21315 6.75574 1.64945 6.4416C1.64913 6.45938 1.64913 6.47716 1.64913 6.49463C1.64913 8.5214 3.09161 10.2119 5.00482 10.5959C4.65419 10.692 4.2839 10.7428 3.903 10.7428C3.63285 10.7428 3.37112 10.7169 3.11594 10.6683C3.64814 12.3297 5.19262 13.5392 7.02348 13.5732C5.59161 14.6953 3.7882 15.3638 1.82788 15.3638C1.49097 15.3638 1.15718 15.3441 0.830566 15.3052C2.68077 16.4924 4.88004 17.1847 7.24216 17.1847C14.9362 17.1847 19.1438 10.8108 19.1438 5.28269C19.1438 5.10145 19.1398 4.92083 19.1317 4.74176C19.9496 4.15217 20.6587 3.41565 21.2193 2.5768Z" fill="#F1F2F2"/>
</svg>
