<svg width="45" height="45" viewBox="0 0 45 45" fill="none" xmlns="http://www.w3.org/2000/svg">
<path d="M22.5 45C34.9264 45 45 34.9264 45 22.5C45 10.0736 34.9264 0 22.5 0C10.0736 0 0 10.0736 0 22.5C0 34.9264 10.0736 45 22.5 45Z" fill="white"/>
<path fill-rule="evenodd" clip-rule="evenodd" d="M21.6499 32.3684H23.4159C23.4159 32.3684 23.9493 32.3099 24.2217 32.0163C24.4723 31.7468 24.4643 31.2406 24.4643 31.2406C24.4643 31.2406 24.4298 28.871 25.5296 28.5221C26.6137 28.1783 28.0059 30.8122 29.4815 31.825C30.5973 32.5914 31.4452 32.4234 31.4452 32.4234L35.3906 32.3684C35.3906 32.3684 37.4546 32.2413 36.476 30.6185C36.3958 30.4858 35.906 29.4181 33.5425 27.2241C31.0686 24.9279 31.3999 25.2993 34.3799 21.3274C36.1948 18.9085 36.9204 17.4317 36.6938 16.7992C36.4776 16.1967 35.1428 16.356 35.1428 16.356L30.7004 16.3837C30.7004 16.3837 30.3711 16.3387 30.1268 16.4847C29.8882 16.6279 29.7346 16.9616 29.7346 16.9616C29.7346 16.9616 29.0315 18.8335 28.0937 20.4254C26.1156 23.7844 25.3246 23.9617 25.0014 23.7532C24.2493 23.2671 24.437 21.8003 24.437 20.7583C24.437 17.5031 24.9308 16.1458 23.4756 15.7945C22.9927 15.6777 22.6374 15.6007 21.4024 15.5883C19.8174 15.5719 18.4757 15.5931 17.7161 15.9653C17.2107 16.2128 16.8209 16.7643 17.0583 16.796C17.3519 16.8353 18.0169 16.9753 18.3695 17.4553C18.8247 18.0746 18.8086 19.4656 18.8086 19.4656C18.8086 19.4656 19.0701 23.2975 18.1978 23.7736C17.599 24.1001 16.7775 23.4335 15.014 20.3861C14.1103 18.825 13.4281 17.0996 13.4281 17.0996C13.4281 17.0996 13.2965 16.7771 13.0619 16.6046C12.7771 16.3957 12.3793 16.3291 12.3793 16.3291L8.15786 16.3568C8.15786 16.3568 7.52414 16.3744 7.29152 16.65C7.08456 16.895 7.27507 17.402 7.27507 17.402C7.27507 17.402 10.58 25.1341 14.3221 29.0306C17.7534 32.6031 21.6499 32.3684 21.6499 32.3684Z" fill="#F91B0C"/>
</svg>
