<svg width="24" height="14" viewBox="0 0 24 14" fill="none" xmlns="http://www.w3.org/2000/svg">
<path fill-rule="evenodd" clip-rule="evenodd" d="M11.8389 13.1753H13.2124C13.2124 13.1753 13.6273 13.1298 13.8391 12.9014C14.0341 12.6918 14.0278 12.2981 14.0278 12.2981C14.0278 12.2981 14.001 10.4551 14.8564 10.1837C15.6996 9.91631 16.7824 11.9649 17.9301 12.7526C18.7979 13.3487 19.4574 13.218 19.4574 13.218L22.5261 13.1753C22.5261 13.1753 24.1314 13.0764 23.3702 11.8142C23.3078 11.711 22.9269 10.8806 21.0886 9.17417C19.1645 7.38824 19.4221 7.6771 21.74 4.58782C23.1516 2.70643 23.7159 1.55781 23.5396 1.06586C23.3715 0.597307 22.3333 0.721153 22.3333 0.721153L18.8781 0.742678C18.8781 0.742678 18.622 0.707738 18.432 0.82129C18.2464 0.932657 18.1269 1.1922 18.1269 1.1922C18.1269 1.1922 17.5801 2.64809 16.8507 3.88624C15.3121 6.49885 14.697 6.63674 14.4455 6.47452C13.8606 6.09643 14.0066 4.95562 14.0066 4.14516C14.0066 1.61334 14.3906 0.557689 13.2589 0.284418C12.8833 0.193639 12.6069 0.133744 11.6464 0.124073C10.4135 0.111283 9.37005 0.127816 8.77921 0.41731C8.38614 0.609785 8.08292 1.03872 8.2676 1.06337C8.49595 1.09394 9.01317 1.20281 9.28738 1.57622C9.64145 2.05788 9.62897 3.13973 9.62897 3.13973C9.62897 3.13973 9.83236 6.12014 9.15386 6.49043C8.68811 6.74436 8.04923 6.22589 6.67757 3.85567C5.97474 2.64154 5.4441 1.29952 5.4441 1.29952C5.4441 1.29952 5.34178 1.0487 5.15929 0.914564C4.9378 0.752036 4.62834 0.700253 4.62834 0.700253L1.34503 0.721776C1.34503 0.721776 0.85214 0.735503 0.671206 0.949816C0.510238 1.14042 0.658416 1.53473 0.658416 1.53473C0.658416 1.53473 3.22892 7.54858 6.13945 10.5792C8.80822 13.3578 11.8389 13.1753 11.8389 13.1753Z" fill="white"/>
</svg>
