<svg width="45" height="45" viewBox="0 0 45 45" fill="none" xmlns="http://www.w3.org/2000/svg">
<path d="M22.5 45C34.9264 45 45 34.9264 45 22.5C45 10.0736 34.9264 0 22.5 0C10.0736 0 0 10.0736 0 22.5C0 34.9264 10.0736 45 22.5 45Z" fill="white"/>
<path d="M20.4 26.8571L27.147 23L20.4 19.1429V26.8571ZM35.428 16.79C35.597 17.3943 35.714 18.2043 35.792 19.2329C35.883 20.2614 35.922 21.1486 35.922 21.92L36 23C36 25.8157 35.792 27.8857 35.428 29.21C35.103 30.3671 34.349 31.1129 33.179 31.4343C32.568 31.6014 31.45 31.7171 29.734 31.7943C28.044 31.8843 26.497 31.9229 25.067 31.9229L23 32C17.553 32 14.16 31.7943 12.821 31.4343C11.651 31.1129 10.897 30.3671 10.572 29.21C10.403 28.6057 10.286 27.7957 10.208 26.7671C10.117 25.7386 10.078 24.8514 10.078 24.08L10 23C10 20.1843 10.208 18.1143 10.572 16.79C10.897 15.6329 11.651 14.8871 12.821 14.5657C13.432 14.3986 14.55 14.2829 16.266 14.2057C17.956 14.1157 19.503 14.0771 20.933 14.0771L23 14C28.447 14 31.84 14.2057 33.179 14.5657C34.349 14.8871 35.103 15.6329 35.428 16.79Z" fill="#F91B0C"/>
</svg>
