<svg width="160" height="60" viewBox="0 0 160 60" fill="none" xmlns="http://www.w3.org/2000/svg">
<path d="M74.1961 57.7293C73.6754 58.0786 72.9812 58.3406 72.287 58.6026C71.5927 58.8647 70.725 58.952 69.6836 58.952C68.6423 58.952 67.7745 58.7773 67.0802 58.6026C66.386 58.3406 65.7786 57.9913 65.1711 57.7293C64.5637 57.3799 64.043 57.1179 63.4355 56.8559C62.8281 56.5939 62.0471 56.4192 61.1793 56.4192C60.3115 56.4192 59.6172 56.5939 58.923 56.8559C58.3156 57.1179 57.7081 57.4673 57.1006 57.7293C56.7535 57.904 56.3196 58.0786 55.9725 58.3407C55.7122 58.428 55.6254 58.69 55.7122 58.952C55.7989 59.214 56.0593 59.3013 56.3196 59.214C56.7535 59.0393 57.1874 58.7773 57.5345 58.6026C58.142 58.2533 58.6627 57.9913 59.2701 57.7293C59.7908 57.4673 60.3983 57.3799 61.1793 57.3799C61.9603 57.3799 62.5677 57.4673 63.0884 57.7293C63.6091 57.9913 64.2165 58.2533 64.7372 58.6026C65.3447 58.952 66.0389 59.214 66.7331 59.5633C67.5141 59.8253 68.4687 60 69.5968 60C70.7249 60 71.6795 59.8253 72.4605 59.5633C73.1548 59.3013 73.849 58.952 74.4564 58.6026C74.63 58.5153 74.7168 58.2533 74.63 57.9913C74.7168 57.7293 74.4565 57.6419 74.1961 57.7293Z" fill="#1E1D4D"/>
<path d="M49.2906 57.7293C48.6831 57.3799 48.0757 57.1179 47.555 56.8559C46.9475 56.5939 46.1665 56.4192 45.2987 56.4192C44.4309 56.4192 43.7367 56.5939 43.0425 56.8559C42.435 57.1179 41.8276 57.4673 41.3069 57.7293C40.7862 58.0786 40.092 58.3406 39.3978 58.6026C38.7035 58.8647 37.8357 58.952 36.7944 58.952C35.753 58.952 34.8852 58.7773 34.191 58.6026C33.4968 58.3406 32.8893 57.9913 32.2819 57.7293C31.9347 57.5546 31.5877 57.38 31.3273 57.2053C31.1538 57.118 30.8934 57.2053 30.7199 57.3799C30.6331 57.5546 30.7199 57.8166 30.8934 57.9913C31.2405 58.166 31.5009 58.3407 31.848 58.5153C32.4554 58.8647 33.1497 59.1267 33.8439 59.476C34.6249 59.738 35.5795 59.9127 36.7076 59.9127C37.8357 59.9127 38.7903 59.738 39.5713 59.476C40.2656 59.214 40.9598 58.8647 41.5672 58.5153C42.0879 58.166 42.6954 57.904 43.3028 57.642C43.8235 57.38 44.431 57.2926 45.212 57.2926C45.993 57.2926 46.6004 57.38 47.1211 57.642C47.6418 57.904 48.2492 58.166 48.8567 58.5153C49.0302 58.6027 49.2906 58.5153 49.4641 58.3407C49.5509 58.166 49.4641 57.904 49.2906 57.7293Z" fill="#1E1D4D"/>
<path d="M32.7156 53.8864C32.9759 53.9737 33.1495 53.8864 33.3231 53.6244C33.4099 53.3624 33.3231 53.1877 33.0627 53.013C32.6289 52.8384 32.2817 52.6637 31.9346 52.4017C31.3272 52.0524 30.7197 51.7904 30.199 51.5284C29.5916 51.2664 28.8106 51.0917 27.9428 51.0917C27.075 51.0917 26.3808 51.2664 25.6865 51.5284C25.0791 51.7904 24.4716 52.1397 23.9509 52.4017C23.4303 52.7511 22.736 53.0131 22.0418 53.2751C21.3476 53.5371 20.4798 53.6244 19.4384 53.6244C18.3971 53.6244 17.5293 53.4498 16.8351 53.2751C16.1408 53.0131 15.5334 52.6637 14.9259 52.4017C14.3185 52.0524 13.7978 51.7904 13.1903 51.5284C12.5829 51.2664 11.8019 51.0917 10.9341 51.0917C10.0663 51.0917 9.37206 51.2664 8.67783 51.5284C8.07038 51.7904 7.46292 52.1397 6.85546 52.4017C6.50835 52.5764 6.07446 52.751 5.72735 53.013C5.46701 53.1004 5.38021 53.3624 5.46699 53.6244C5.55377 53.8864 5.81412 53.9737 6.07446 53.8864C6.50835 53.7117 6.94224 53.4498 7.28936 53.2751C7.89681 52.9257 8.41749 52.6637 9.02494 52.4017C9.54561 52.1397 10.1531 52.0524 10.9341 52.0524C11.7151 52.0524 12.3225 52.1397 12.8432 52.4017C13.3639 52.6637 13.9713 52.9257 14.492 53.2751C15.0995 53.6244 15.7937 53.8864 16.4879 54.2358C17.269 54.4978 18.2235 54.6724 19.3516 54.6724C20.4798 54.6724 21.4344 54.4978 22.2154 54.2358C22.9096 53.9738 23.6038 53.6244 24.2113 53.2751C24.7319 52.9257 25.3394 52.6637 25.9469 52.4017C26.4675 52.1397 27.075 52.0524 27.856 52.0524C28.637 52.0524 29.2445 52.1397 29.7651 52.4017C30.2858 52.6637 30.8933 52.9257 31.5007 53.2751C31.8478 53.4498 32.2817 53.7117 32.7156 53.8864Z" fill="#1E1D4D"/>
<path d="M23.8641 57.7291C23.3435 58.0784 22.6492 58.3404 21.955 58.6025C21.2608 58.8645 20.393 58.9518 19.3516 58.9518C18.3103 58.9518 17.4425 58.7771 16.7482 58.6025C16.054 58.3404 15.4466 57.9911 14.8391 57.7291C14.6656 57.6418 14.4052 57.7291 14.2317 57.9038C14.1449 58.0784 14.1449 58.3405 14.4052 58.5151C15.0127 58.8645 15.7069 59.1265 16.4011 59.4758C17.1821 59.7378 18.1367 59.9125 19.2648 59.9125C20.393 59.9125 21.3475 59.7378 22.1286 59.4758C22.8228 59.2138 23.517 58.8645 24.1245 58.5151C24.298 58.4278 24.3848 58.1658 24.298 57.9038C24.3848 57.7291 24.1245 57.6418 23.8641 57.7291Z" fill="#1E1D4D"/>
<path d="M74.6299 52.4891C74.0225 52.8384 73.415 53.1004 72.7208 53.3624C72.0266 53.6245 71.1588 53.7118 70.2042 53.7118C69.1629 53.7118 68.3819 53.5371 67.6876 53.3624C66.9934 53.1004 66.3859 52.7511 65.7785 52.4891C65.171 52.1397 64.5636 51.8777 64.0429 51.6157C63.4354 51.3537 62.6544 51.179 61.7866 51.179C60.9188 51.179 60.2246 51.3537 59.5304 51.6157C58.9229 51.8777 58.3155 52.2271 57.7948 52.4891C57.2741 52.8384 56.5799 53.1004 55.8857 53.3624C55.1914 53.6245 54.3236 53.7118 53.2823 53.7118C52.2409 53.7118 51.3732 53.5371 50.6789 53.3624C49.9847 53.1004 49.3772 52.7511 48.7698 52.4891C48.1623 52.1397 47.6416 51.8777 47.0342 51.6157C46.4267 51.3537 45.6457 51.179 44.778 51.179C43.9102 51.179 43.2159 51.3537 42.5217 51.6157C41.9142 51.8777 41.3068 52.2271 40.6993 52.4891C40.3522 52.6637 39.9183 52.8384 39.5712 53.1004C39.3109 53.1878 39.2241 53.4498 39.3109 53.7118C39.3976 53.9738 39.658 54.0611 39.9183 53.9738C40.3522 53.7991 40.7861 53.5371 41.1332 53.3624C41.7407 53.0131 42.2614 52.7511 42.8688 52.4891C43.3895 52.2271 43.9969 52.1397 44.778 52.1397C45.559 52.1397 46.1664 52.2271 46.6871 52.4891C47.2078 52.7511 47.8152 53.0131 48.3359 53.3624C48.9433 53.7118 49.6376 53.9738 50.3318 54.3231C51.1128 54.5851 52.0674 54.7598 53.1955 54.7598C54.3236 54.7598 55.2782 54.5851 56.0592 54.3231C56.7535 54.0611 57.4477 53.7118 58.0551 53.3624C58.5758 53.0131 59.1833 52.7511 59.7907 52.4891C60.3114 52.2271 60.9189 52.1397 61.6999 52.1397C62.4809 52.1397 63.0883 52.2271 63.609 52.4891C64.1297 52.7511 64.7371 53.0131 65.3446 53.3624C65.952 53.7118 66.6463 53.9738 67.3405 54.3231C68.1215 54.5851 69.0761 54.7598 70.2042 54.7598C71.3323 54.7598 72.2869 54.5851 73.0679 54.3231C73.7621 54.0611 74.4564 53.7118 75.0638 53.3624C75.2374 53.2751 75.3242 53.0131 75.2374 52.7511C75.1506 52.4891 74.8903 52.4017 74.6299 52.4891Z" fill="#1E1D4D"/>
<path d="M78.8821 17.1179C77.2333 17.1179 75.7581 15.8952 74.5432 14.1485V14.0611H74.4564C72.1134 10.5677 70.5514 4.89082 70.2043 1.31004C70.2043 1.2227 70.2042 1.13538 70.1175 1.13538C69.9439 0.524032 69.3365 0.0873414 68.6422 0.0873414C67.948 0.0873414 67.4273 0.524032 67.167 1.13538C67.0802 1.22272 67.0802 1.31005 67.0802 1.39738C67.0802 1.65939 67.0802 1.9214 67.0802 2.27074H59.2701V1.57207C59.2701 0.698704 58.5759 0 57.7081 0C56.8403 0 56.146 0.698704 56.146 1.57207V3.49344C54.8443 9.60697 49.7244 21.1353 40.1787 21.2227C28.5503 18.5153 24.5585 8.90828 24.0378 3.58078V1.65938C24.0378 0.786019 23.3436 0.0873414 22.4758 0.0873414C21.608 0.0873414 20.9138 0.786019 20.9138 1.65938V2.35808H13.5375V1.65938C13.5375 0.786019 12.8433 0.0873414 11.9755 0.0873414C11.2813 0.0873414 10.7606 0.524032 10.5003 1.13538C10.5003 1.22272 10.4135 1.2227 10.4135 1.31004C9.80603 4.45414 8.85146 9.78165 6.50843 13.3624C4.85963 15.8952 2.86371 17.1179 0.433895 17.1179C0.173558 17.1179 0 17.2925 0 17.5546C0 17.8166 0.173558 17.9912 0.433895 17.9912C2.77693 17.9912 4.77284 16.9432 6.42164 14.9345V20.9607C4.59928 21.572 2.60337 21.834 0.433895 21.834C0.173558 21.834 0 22.0087 0 22.2707C0 22.5327 0.173558 22.7074 0.433895 22.7074C2.60337 22.7074 4.59928 22.358 6.42164 21.834V32.3143H1.73558C1.04135 32.3143 0.433895 32.9257 0.433895 33.6244C0.433895 34.3231 1.04135 34.9344 1.73558 34.9344H10.4135V45.9388C9.63247 45.9388 8.93823 46.1134 8.41755 46.3755C7.8101 46.6375 7.20267 46.9868 6.59521 47.2488C6.2481 47.4235 5.81419 47.5982 5.46707 47.8602C5.20673 47.9475 5.11996 48.2095 5.20674 48.4715C5.29352 48.7336 5.55384 48.8209 5.81418 48.7335C6.24808 48.5589 6.68199 48.2968 7.02911 48.1222C7.63656 47.7728 8.15724 47.5108 8.76469 47.2488C9.28536 46.9868 9.8928 46.8994 10.6738 46.8994C11.4548 46.8994 12.0623 46.9868 12.583 47.2488C13.1036 47.5108 13.7111 47.7728 14.2318 48.1222C14.8392 48.4715 15.5334 48.7335 16.2277 49.0829C17.0087 49.3449 17.9633 49.5195 19.0914 49.5195C20.2195 49.5195 21.1741 49.3449 21.9551 49.0829C22.6493 48.8208 23.3436 48.4715 23.951 48.1222C24.4717 47.7728 25.0792 47.5108 25.6866 47.2488C26.2073 46.9868 26.8147 46.8994 27.5957 46.8994C28.3767 46.8994 28.9842 46.9868 29.5049 47.2488C30.0256 47.5108 30.633 47.7728 31.2405 48.1222C31.8479 48.4715 32.5421 48.7335 33.2364 49.0829C34.0174 49.3449 34.972 49.5195 36.1001 49.5195C37.2282 49.5195 38.1828 49.3449 38.9638 49.0829C39.658 48.8208 40.3522 48.4715 40.9597 48.1222C41.5672 47.7728 42.0878 47.5108 42.6953 47.2488C43.216 46.9868 43.8234 46.8994 44.6044 46.8994C45.3854 46.8994 45.9929 46.9868 46.5136 47.2488C47.0343 47.5108 47.6417 47.7728 48.1624 48.1222C48.7698 48.4715 49.4641 48.7335 50.1583 49.0829C50.9393 49.3449 51.8939 49.5195 53.022 49.5195C54.1501 49.5195 55.1047 49.3449 55.8857 49.0829C56.5799 48.8208 57.2742 48.4715 57.8816 48.1222C58.4023 47.7728 59.0097 47.5108 59.6172 47.2488C60.1379 46.9868 60.7453 46.8994 61.5263 46.8994C62.3074 46.8994 62.9148 46.9868 63.4355 47.2488C63.9562 47.5108 64.5636 47.7728 65.1711 48.1222C65.7785 48.4715 66.4728 48.7335 67.167 49.0829C67.948 49.3449 68.9025 49.5195 70.0307 49.5195C71.1588 49.5195 72.1134 49.3449 72.8944 49.0829C73.5019 48.8208 74.0225 48.6462 74.5432 48.3842C74.7168 48.2968 74.8036 48.0348 74.7168 47.7728C74.63 47.5981 74.3696 47.5108 74.1093 47.5982C73.6754 47.8602 73.1547 48.0349 72.5473 48.2969C71.8531 48.5589 70.9852 48.6462 70.0307 48.6462V35.1091H77.4069C78.1011 35.1091 78.7086 34.4978 78.7086 33.7991C78.7086 33.1004 78.1011 32.489 77.4069 32.489H74.3696V15.6332C75.5845 17.1179 77.0598 18.0786 78.7086 18.0786C78.9689 18.0786 79.1425 17.9039 79.1425 17.6419C79.1425 17.3799 79.1425 17.1179 78.8821 17.1179ZM24.2114 34.1484V33.275H67.167V34.1484H24.2114ZM59.3569 24.9781H67.167V32.4017H59.3569V24.9781ZM67.167 24.1048H59.3569V21.4847H67.167V24.1048ZM67.167 20.6113H59.3569V18.8646H67.167V20.6113ZM67.167 17.9912H59.704C60.3114 17.4672 60.8321 17.0305 61.266 16.5065C61.6131 16.1572 61.9602 15.7205 62.3074 15.3712H67.167V17.9912ZM67.167 14.4978H63.0016C63.6958 13.6244 64.3033 12.7511 64.8239 11.8777H67.167V14.4978ZM67.167 11.0043H65.2578C65.6049 10.393 65.8653 9.86898 66.1256 9.25763H67.167V11.0043ZM66.5595 8.38427C66.8199 7.77292 66.9934 7.16156 67.167 6.63755V8.38427H66.5595ZM65.605 8.38427H59.3569V5.76419H66.4728C66.2992 6.63755 65.9521 7.51091 65.605 8.38427ZM65.1711 9.25763C64.9107 9.86898 64.5636 10.393 64.3033 11.0043H59.3569V9.25763H65.1711ZM63.7826 11.8777C63.2619 12.7511 62.5677 13.6244 61.8735 14.4978H59.3569V11.8777H63.7826ZM61.0924 15.3712C60.9189 15.5458 60.7453 15.7205 60.5718 15.8952C60.2247 16.2445 59.7908 16.6812 59.3569 17.1179V15.3712H61.0924ZM57.1874 19.8253C57.6213 19.5633 58.0552 19.2139 58.4891 18.9519V32.4017H57.1874V19.8253ZM56.3196 20.3493V32.4017H53.2823V21.6594C54.4105 21.31 55.365 20.8733 56.3196 20.3493ZM52.4145 32.4017H49.3773V22.62C50.4186 22.4454 51.46 22.2707 52.4145 22.0087V32.4017ZM48.5095 32.4017H45.0383V22.7074C45.6458 22.7074 46.1665 22.7947 46.7739 22.7947C47.3814 22.7947 47.902 22.7947 48.5095 22.7074V32.4017ZM44.1705 32.4017H40.6994V22.1834C41.8275 22.4454 42.9556 22.5327 44.1705 22.7074V32.4017ZM39.8316 32.4017H36.3604V20.8733C37.4018 21.31 38.6167 21.6594 39.8316 22.0087V32.4017ZM35.4926 32.4017H32.4554V18.7773C33.4099 19.3886 34.3645 20 35.4926 20.4366V32.4017ZM67.0802 3.1441C66.9934 3.66812 66.9066 4.27947 66.7331 4.89082H59.3569V3.1441H67.0802ZM57.7949 0.960702C58.142 0.960702 58.4891 1.2227 58.4891 1.65938V17.9039C58.0552 18.2532 57.6213 18.5153 57.1874 18.8646V1.74672C57.1874 1.2227 57.4477 0.960702 57.7949 0.960702ZM56.3196 6.72489V19.3013C53.803 20.786 50.679 21.9214 46.7739 21.9214C45.559 21.9214 44.4309 21.834 43.3027 21.7467C50.2451 20 54.4105 12.4891 56.3196 6.72489ZM31.5876 18.1659V32.4017H28.5503V15.3712C29.4181 16.3318 30.4594 17.2926 31.5876 18.1659ZM27.6825 14.3231V32.4017H24.2114V7.68559C24.9056 9.78165 26.0337 12.1397 27.6825 14.3231ZM11.6284 19.6506C12.0623 19.3886 12.4962 19.0393 12.9301 18.6899V32.4017H11.6284V19.6506ZM21.1741 24.1048H13.7979V21.4847H21.1741V24.1048ZM21.1741 20.6113H13.7979V18.8646H21.1741V20.6113ZM21.1741 17.9912H13.7979C14.7524 17.2052 15.6202 16.3318 16.3145 15.3712H21.1741V17.9912ZM21.1741 14.4978H17.0955C17.7897 13.6244 18.3104 12.7511 18.831 11.8777H21.1741V14.4978ZM21.1741 11.0043H19.2649C19.612 10.393 19.8724 9.86898 20.1327 9.25763H21.1741V11.0043ZM20.5666 8.38427C20.827 7.86025 21.0005 7.33625 21.1741 6.81223V8.38427H20.5666ZM19.6121 8.38427H13.7979V5.76419H20.5666C20.3063 6.55021 20.046 7.42357 19.6121 8.38427ZM19.1782 9.25763C18.9178 9.86898 18.5707 10.393 18.3104 11.0043H13.7979V9.25763H19.1782ZM17.7897 11.8777C17.269 12.7511 16.6616 13.6244 15.9673 14.4978H13.7979V11.8777H17.7897ZM15.1863 15.3712C14.7524 15.8952 14.3185 16.3319 13.7979 16.8559V15.3712H15.1863ZM13.7979 24.9781H21.1741V32.4017H13.7979V24.9781ZM21.1741 3.1441V3.49344C21.0873 3.93012 21.0005 4.36681 20.827 4.89082H13.7979V3.1441H21.1741ZM12.2359 0.960702C12.583 0.960702 12.9301 1.2227 12.9301 1.65938V17.6419C12.4962 17.9912 12.0623 18.3406 11.6284 18.6026V1.65938C11.6284 1.2227 11.8887 0.960702 12.2359 0.960702ZM7.63655 13.7118C9.11179 11.3537 10.0664 8.29692 10.7606 5.5895V19.1266C9.80603 19.7379 8.76467 20.262 7.63655 20.6987V13.7118ZM7.63655 21.6594C8.76467 21.2227 9.80603 20.786 10.7606 20.1746V32.4017H7.63655V21.6594ZM2.08269 34.1484C1.82235 34.1484 1.6488 33.9737 1.6488 33.7117C1.6488 33.4497 1.82235 33.275 2.08269 33.275H21.1741V34.1484H2.08269ZM11.6284 45.9388V35.0218H12.9301V46.2881C12.583 46.1135 12.1491 46.0261 11.6284 45.9388ZM16.8351 48.2095C16.1409 47.9475 15.5334 47.5981 14.926 47.3361C14.4921 47.0741 14.145 46.8995 13.7111 46.7248V35.1091H21.0873V48.4715C20.5666 48.5589 20.0459 48.6462 19.3517 48.6462C18.3971 48.5588 17.5294 48.3842 16.8351 48.2095ZM22.0419 48.1222V1.57207C22.0419 1.22272 22.3022 0.873361 22.7361 0.873361C23.17 0.873361 23.4303 1.13538 23.4303 1.57207V47.5982C22.9097 47.7729 22.4758 47.9475 22.0419 48.1222ZM55.8857 48.2095C55.1915 48.4715 54.3237 48.5589 53.2823 48.5589C52.241 48.5589 51.3732 48.3842 50.679 48.2095C49.9847 47.9475 49.3773 47.5981 48.7698 47.3361C48.1624 46.9868 47.6417 46.7248 47.0342 46.4628C46.4268 46.2008 45.6458 46.0261 44.778 46.0261C43.9102 46.0261 43.216 46.2008 42.5217 46.4628C41.9143 46.7248 41.3068 47.0741 40.6994 47.3361C40.0919 47.6855 39.4845 47.9475 38.7902 48.2095C38.096 48.4715 37.2282 48.5589 36.2736 48.5589C35.2323 48.5589 34.4513 48.3842 33.757 48.2095C33.0628 47.9475 32.4554 47.5981 31.8479 47.3361C31.2404 46.9868 30.633 46.7248 30.1123 46.4628C29.5049 46.2008 28.7239 46.0261 27.8561 46.0261C26.9883 46.0261 26.2941 46.2008 25.5998 46.4628C25.0791 46.7248 24.6452 46.8995 24.1246 47.1615V35.1091H56.2328V48.0349C56.146 48.0349 56.0593 48.1222 55.8857 48.2095ZM57.7081 47.2488C57.5345 47.3362 57.361 47.4235 57.1874 47.5108V34.9344H58.4891V46.8121C58.2287 46.9868 57.9684 47.1615 57.7081 47.2488ZM64.0429 46.3755C63.4355 46.1134 62.6545 45.9388 61.7867 45.9388C60.9189 45.9388 60.2247 46.1134 59.5304 46.3755C59.4437 46.3755 59.4436 46.4628 59.3569 46.4628V35.0218H67.167V47.9475C66.6463 47.7728 66.2124 47.5108 65.7785 47.2488C65.1711 46.9868 64.5636 46.6375 64.0429 46.3755ZM68.0348 48.2969V1.57207C68.0348 1.22272 68.2951 0.873361 68.729 0.873361C69.1629 0.873361 69.4232 1.13538 69.4232 1.57207V48.5589C68.8158 48.4715 68.3819 48.3842 68.0348 48.2969ZM78.0144 33.7117C78.0144 33.9737 77.8408 34.1484 77.5805 34.1484H70.2043V33.275H77.5805C77.8408 33.275 78.0144 33.4497 78.0144 33.7117ZM73.6754 32.4017H70.2043V6.02618C70.9853 8.90827 72.1134 12.0524 73.6754 14.4104V32.4017Z" fill="#1E1D4D"/>
<path d="M119.214 16.2445V39.8252H121.123L135.268 19.4759V39.8252H137.003V16.2445H135.355L120.949 37.0305V16.2445H119.214Z" fill="#1E1D4D"/>
<path d="M142.644 17.9912H150.454V39.8252H152.19V17.9912H160V16.2445H142.644V17.9912Z" fill="#1E1D4D"/>
<path d="M97.5191 16.2445V39.8253H99.3415V16.2445H97.5191Z" fill="#1E1D4D"/>
<path d="M100.296 27.6855V26.1135H100.383C101.077 25.8514 102.205 25.2401 103.333 24.4541C104.461 23.5807 105.416 22.5327 105.85 21.31C106.544 19.4759 107.325 18.1659 108.54 17.3799C109.755 16.5065 111.23 16.3318 113.139 16.3318V18.0786C111.317 18.0786 110.362 18.3406 109.581 18.7772C108.8 19.3013 108.193 20.1746 107.585 21.9213C106.978 23.5807 105.676 24.8908 104.461 25.8515C103.767 26.3755 103.073 26.8122 102.379 27.1615C104.201 28.6462 106.544 30.6549 108.54 32.751C109.755 33.9737 110.883 35.2838 111.664 36.4191C112.445 37.5545 113.052 38.7772 113.052 39.8252H111.23C111.23 39.3012 110.883 38.4279 110.102 37.3798C109.321 36.3318 108.366 35.1091 107.152 33.8864C104.895 31.5283 102.205 29.1702 100.296 27.6855Z" fill="#1E1D4D"/>
</svg>
