<svg width="274" height="102" viewBox="0 0 274 102" fill="none" xmlns="http://www.w3.org/2000/svg">
<path d="M127.061 98.1398C126.169 98.7337 124.98 99.1791 123.791 99.6245C122.603 100.07 121.116 100.218 119.333 100.218C117.55 100.218 116.064 99.9214 114.875 99.6245C113.686 99.1791 112.646 98.5852 111.606 98.1398C110.565 97.5459 109.674 97.1005 108.633 96.6551C107.593 96.2097 106.256 95.9127 104.769 95.9127C103.283 95.9127 102.095 96.2097 100.906 96.6551C99.8654 97.1005 98.8251 97.6944 97.7848 98.1398C97.1904 98.4367 96.4474 98.7337 95.8529 99.1791C95.4071 99.3276 95.2585 99.773 95.4071 100.218C95.5557 100.664 96.0015 100.812 96.4474 100.664C97.1904 100.367 97.9334 99.9214 98.5279 99.6245C99.5682 99.0306 100.46 98.5852 101.5 98.1398C102.392 97.6944 103.432 97.5459 104.769 97.5459C106.107 97.5459 107.147 97.6944 108.039 98.1398C108.931 98.5852 109.971 99.0306 110.862 99.6245C111.903 100.218 113.092 100.664 114.28 101.258C115.618 101.703 117.253 102 119.185 102C121.116 102 122.751 101.703 124.089 101.258C125.278 100.812 126.466 100.218 127.507 99.6245C127.804 99.476 127.953 99.0306 127.804 98.5852C127.953 98.1398 127.507 97.9913 127.061 98.1398Z" fill="white"/>
<path d="M84.4101 98.1398C83.3698 97.5459 82.3296 97.1005 81.4379 96.6551C80.3976 96.2097 79.0602 95.9127 77.5741 95.9127C76.088 95.9127 74.8991 96.2097 73.7103 96.6551C72.67 97.1005 71.6297 97.6944 70.7381 98.1398C69.8464 98.7337 68.6575 99.1791 67.4687 99.6245C66.2798 100.07 64.7937 100.218 63.0104 100.218C61.2271 100.218 59.741 99.9214 58.5521 99.6245C57.3632 99.1791 56.323 98.5852 55.2827 98.1398C54.6883 97.8428 54.0939 97.5459 53.648 97.249C53.3508 97.1005 52.905 97.2489 52.6077 97.5459C52.4591 97.8428 52.6078 98.2882 52.905 98.5852C53.4994 98.8821 53.9452 99.1791 54.5396 99.4761C55.5799 100.07 56.7688 100.515 57.9577 101.109C59.2952 101.555 60.9298 101.852 62.8618 101.852C64.7937 101.852 66.4284 101.555 67.7659 101.109C68.9548 100.664 70.1436 100.07 71.1839 99.4761C72.0755 98.8822 73.1158 98.4368 74.1561 97.9913C75.0477 97.5459 76.088 97.3974 77.4255 97.3974C78.763 97.3974 79.8032 97.5459 80.6949 97.9913C81.5865 98.4368 82.6268 98.8822 83.667 99.4761C83.9643 99.6245 84.4101 99.4761 84.7073 99.1791C84.8559 98.8822 84.7073 98.4367 84.4101 98.1398Z" fill="white"/>
<path d="M56.0255 91.6069C56.4713 91.7554 56.7686 91.6069 57.0658 91.1615C57.2144 90.7161 57.0658 90.4191 56.62 90.1222C55.8769 89.8252 55.2824 89.5284 54.688 89.0829C53.6477 88.4891 52.6075 88.0436 51.7158 87.5982C50.6756 87.1528 49.3381 86.8559 47.852 86.8559C46.3659 86.8559 45.1771 87.1528 43.9882 87.5982C42.9479 88.0436 41.9076 88.6375 41.016 89.0829C40.1243 89.6768 38.9354 90.1222 37.7466 90.5677C36.5577 91.0131 35.0716 91.1615 33.2883 91.1615C31.505 91.1615 30.0189 90.8646 28.83 90.5677C27.6412 90.1222 26.6009 89.5284 25.5606 89.0829C24.5203 88.4891 23.6287 88.0436 22.5884 87.5982C21.5482 87.1528 20.2107 86.8559 18.7246 86.8559C17.2385 86.8559 16.0497 87.1528 14.8608 87.5982C13.8205 88.0436 12.7802 88.6375 11.74 89.0829C11.1455 89.3799 10.4025 89.6768 9.80808 90.1222C9.36225 90.2706 9.21362 90.7161 9.36223 91.1615C9.51083 91.6069 9.95668 91.7554 10.4025 91.6069C11.1456 91.3099 11.8886 90.8646 12.483 90.5677C13.5233 89.9738 14.4149 89.5284 15.4552 89.0829C16.3469 88.6375 17.3871 88.489 18.7246 88.489C20.0621 88.489 21.1023 88.6375 21.994 89.0829C22.8857 89.5284 23.9259 89.9738 24.8176 90.5677C25.8578 91.1615 27.0467 91.6069 28.2356 92.2008C29.5731 92.6462 31.2078 92.9432 33.1397 92.9432C35.0716 92.9432 36.7063 92.6462 38.0438 92.2008C39.2327 91.7554 40.4215 91.1615 41.4618 90.5677C42.3535 89.9738 43.3937 89.5284 44.434 89.0829C45.3256 88.6375 46.3659 88.489 47.7034 88.489C49.0409 88.489 50.0811 88.6375 50.9728 89.0829C51.8644 89.5284 52.9047 89.9738 53.945 90.5677C54.5394 90.8646 55.2824 91.3099 56.0255 91.6069Z" fill="white"/>
<path d="M40.8673 98.1395C39.9757 98.7333 38.7868 99.1788 37.5979 99.6242C36.409 100.07 34.923 100.218 33.1396 100.218C31.3563 100.218 29.8702 99.9211 28.6814 99.6242C27.4925 99.1788 26.4523 98.5849 25.412 98.1395C25.1148 97.991 24.6689 98.1395 24.3717 98.4364C24.2231 98.7334 24.2231 99.1788 24.669 99.4757C25.7092 100.07 26.8981 100.515 28.0869 101.109C29.4244 101.554 31.0591 101.851 32.991 101.851C34.9229 101.851 36.5577 101.554 37.8952 101.109C39.084 100.663 40.2729 100.07 41.3131 99.4757C41.6104 99.3273 41.759 98.8818 41.6104 98.4364C41.759 98.1395 41.3132 97.991 40.8673 98.1395Z" fill="white"/>
<path d="M127.804 89.2314C126.764 89.8253 125.723 90.2707 124.534 90.7162C123.345 91.1616 121.859 91.3101 120.225 91.3101C118.441 91.3101 117.104 91.0131 115.915 90.7162C114.726 90.2707 113.686 89.6768 112.646 89.2314C111.605 88.6376 110.565 88.1921 109.673 87.7467C108.633 87.3013 107.296 87.0044 105.81 87.0044C104.324 87.0044 103.135 87.3013 101.946 87.7467C100.906 88.1921 99.8653 88.786 98.9736 89.2314C98.082 89.8253 96.8931 90.2707 95.7042 90.7162C94.5153 91.1616 93.0292 91.3101 91.2459 91.3101C89.4626 91.3101 87.9765 91.0131 86.7877 90.7162C85.5988 90.2707 84.5585 89.6768 83.5182 89.2314C82.478 88.6376 81.5863 88.1921 80.5461 87.7467C79.5058 87.3013 78.1683 87.0044 76.6823 87.0044C75.1962 87.0044 74.0073 87.3013 72.8184 87.7467C71.7781 88.1921 70.7379 88.786 69.6976 89.2314C69.1032 89.5284 68.3601 89.8253 67.7657 90.2708C67.3199 90.4192 67.1712 90.8647 67.3198 91.3101C67.4685 91.7555 67.9143 91.9039 68.3601 91.7555C69.1032 91.4585 69.8462 91.0131 70.4406 90.7162C71.4809 90.1223 72.3726 89.6768 73.4128 89.2314C74.3045 88.786 75.3448 88.6375 76.6823 88.6375C78.0197 88.6375 79.06 88.786 79.9516 89.2314C80.8433 89.6768 81.8835 90.1223 82.7752 90.7162C83.8155 91.31 85.0043 91.7554 86.1932 92.3493C87.5307 92.7947 89.1654 93.0917 91.0973 93.0917C93.0292 93.0917 94.6639 92.7947 96.0014 92.3493C97.1903 91.9039 98.3792 91.31 99.4194 90.7162C100.311 90.1223 101.351 89.6768 102.392 89.2314C103.283 88.786 104.324 88.6375 105.661 88.6375C106.999 88.6375 108.039 88.786 108.93 89.2314C109.822 89.6768 110.862 90.1223 111.903 90.7162C112.943 91.31 114.132 91.7554 115.321 92.3493C116.658 92.7947 118.293 93.0917 120.225 93.0917C122.157 93.0917 123.791 92.7947 125.129 92.3493C126.318 91.9039 127.507 91.31 128.547 90.7162C128.844 90.5677 128.993 90.1223 128.844 89.6768C128.695 89.2314 128.25 89.083 127.804 89.2314Z" fill="white"/>
<path d="M135.086 29.1004C132.262 29.1004 129.736 27.0218 127.655 24.0524V23.9039H127.507C123.494 17.965 120.819 8.31439 120.225 2.22707C120.225 2.0786 120.225 1.93015 120.076 1.93015C119.779 0.890855 118.739 0.14848 117.55 0.14848C116.361 0.14848 115.469 0.890855 115.023 1.93015C114.875 2.07863 114.875 2.22708 114.875 2.37555C114.875 2.82096 114.875 3.26638 114.875 3.86026H101.5V2.67251C101.5 1.1878 100.311 0 98.8251 0C97.339 0 96.1501 1.1878 96.1501 2.67251V5.93885C93.9209 16.3318 85.153 35.9301 68.806 36.0786C48.8924 31.4759 42.0564 15.1441 41.1647 6.08733V2.82095C41.1647 1.33623 39.9758 0.14848 38.4898 0.14848C37.0037 0.14848 35.8148 1.33623 35.8148 2.82095V4.00874H23.183V2.82095C23.183 1.33623 21.9941 0.14848 20.508 0.14848C19.3192 0.14848 18.4275 0.890855 17.9817 1.93015C17.9817 2.07863 17.8331 2.0786 17.8331 2.22707C16.7928 7.57204 15.1581 16.6288 11.1457 22.7161C8.32211 27.0218 4.9041 29.1004 0.743046 29.1004C0.297218 29.1004 0 29.3973 0 29.8427C0 30.2882 0.297218 30.5851 0.743046 30.5851C4.75549 30.5851 8.17349 28.8034 10.9971 25.3886V35.6331C7.87628 36.6724 4.45827 37.1178 0.743046 37.1178C0.297218 37.1178 0 37.4148 0 37.8602C0 38.3056 0.297218 38.6025 0.743046 38.6025C4.45827 38.6025 7.87628 38.0087 10.9971 37.1178V54.9344H2.97218C1.78331 54.9344 0.743046 55.9737 0.743046 57.1615C0.743046 58.3492 1.78331 59.3885 2.97218 59.3885H17.8331V78.0959C16.4956 78.0959 15.3067 78.3929 14.4151 78.8383C13.3748 79.2837 12.3346 79.8776 11.2943 80.323C10.6999 80.6199 9.95679 80.9169 9.36236 81.3623C8.91653 81.5108 8.76794 81.9562 8.91655 82.4016C9.06516 82.847 9.51096 82.9955 9.95678 82.847C10.6998 82.5501 11.4429 82.1046 12.0373 81.8077C13.0776 81.2138 13.9693 80.7684 15.0095 80.323C15.9012 79.8776 16.9414 79.7291 18.2789 79.7291C19.6164 79.7291 20.6567 79.8776 21.5483 80.323C22.44 80.7684 23.4802 81.2138 24.3719 81.8077C25.4122 82.4016 26.601 82.847 27.7899 83.4408C29.1274 83.8863 30.7621 84.1832 32.694 84.1832C34.6259 84.1832 36.2606 83.8863 37.5981 83.4408C38.787 82.9954 39.9759 82.4016 41.0161 81.8077C41.9078 81.2138 42.948 80.7684 43.9883 80.323C44.88 79.8776 45.9202 79.7291 47.2577 79.7291C48.5952 79.7291 49.6354 79.8776 50.5271 80.323C51.4188 80.7684 52.459 81.2138 53.4993 81.8077C54.5396 82.4016 55.7284 82.847 56.9173 83.4408C58.2548 83.8863 59.8895 84.1832 61.8214 84.1832C63.7533 84.1832 65.388 83.8863 66.7255 83.4408C67.9144 82.9954 69.1032 82.4016 70.1435 81.8077C71.1837 81.2138 72.0754 80.7684 73.1157 80.323C74.0073 79.8776 75.0476 79.7291 76.3851 79.7291C77.7226 79.7291 78.7628 79.8776 79.6545 80.323C80.5462 80.7684 81.5864 81.2138 82.4781 81.8077C83.5183 82.4016 84.7072 82.847 85.8961 83.4408C87.2335 83.8863 88.8683 84.1832 90.8002 84.1832C92.7321 84.1832 94.3668 83.8863 95.7043 83.4408C96.8931 82.9954 98.082 82.4016 99.1223 81.8077C100.014 81.2138 101.054 80.7684 102.094 80.323C102.986 79.8776 104.026 79.7291 105.364 79.7291C106.701 79.7291 107.742 79.8776 108.633 80.323C109.525 80.7684 110.565 81.2138 111.605 81.8077C112.646 82.4016 113.835 82.847 115.023 83.4408C116.361 83.8863 117.996 84.1832 119.928 84.1832C121.859 84.1832 123.494 83.8863 124.832 83.4408C125.872 82.9954 126.764 82.6985 127.655 82.2531C127.952 82.1046 128.101 81.6592 127.952 81.2138C127.804 80.9168 127.358 80.7684 126.912 80.9169C126.169 81.3623 125.278 81.6592 124.237 82.1047C123.048 82.5501 121.562 82.6985 119.928 82.6985V59.6855H132.559C133.748 59.6855 134.788 58.6462 134.788 57.4584C134.788 56.2706 133.748 55.2313 132.559 55.2313H127.358V26.5764C129.439 29.1004 131.965 30.7336 134.788 30.7336C135.234 30.7336 135.532 30.4366 135.532 29.9912C135.532 29.5458 135.532 29.1004 135.086 29.1004ZM41.4619 58.0523V56.5676H115.023V58.0523H41.4619ZM101.649 42.4628H115.023V55.0829H101.649V42.4628ZM115.023 40.9781H101.649V36.524H115.023V40.9781ZM115.023 35.0392H101.649V32.0698H115.023V35.0392ZM115.023 30.5851H102.243C103.283 29.6943 104.175 28.9519 104.918 28.0611C105.512 27.4672 106.107 26.7248 106.701 26.131H115.023V30.5851ZM115.023 24.6462H107.89C109.079 23.1615 110.119 21.6768 111.011 20.1921H115.023V24.6462ZM115.023 18.7074H111.754C112.348 17.6681 112.794 16.7773 113.24 15.738H115.023V18.7074ZM113.983 14.2533C114.429 13.214 114.726 12.1747 115.023 11.2838V14.2533H113.983ZM112.349 14.2533H101.649V9.79912H113.835C113.537 11.2838 112.943 12.7685 112.349 14.2533ZM111.605 15.738C111.16 16.7773 110.565 17.6681 110.119 18.7074H101.649V15.738H111.605ZM109.228 20.1921C108.336 21.6768 107.147 23.1615 105.958 24.6462H101.649V20.1921H109.228ZM104.621 26.131C104.324 26.4279 104.026 26.7249 103.729 27.0218C103.135 27.6157 102.392 28.358 101.649 29.1004V26.131H104.621ZM97.9334 33.703C98.6765 33.2576 99.4195 32.6637 100.163 32.2183V55.0829H97.9334V33.703ZM96.4473 34.5938V55.0829H91.246V36.8209C93.1779 36.227 94.8126 35.4847 96.4473 34.5938ZM89.7599 55.0829H84.5586V38.4541C86.3419 38.1571 88.1252 37.8602 89.7599 37.4148V55.0829ZM83.0725 55.0829H77.1281V38.6025C78.1684 38.6025 79.06 38.751 80.1003 38.751C81.1406 38.751 82.0322 38.751 83.0725 38.6025V55.0829ZM75.642 55.0829H69.6977V37.7117C71.6296 38.1571 73.5615 38.3056 75.642 38.6025V55.0829ZM68.2116 55.0829H62.2672V35.4846C64.0505 36.227 66.1311 36.8209 68.2116 37.4148V55.0829ZM60.7811 55.0829H55.5798V31.9213C57.2145 32.9606 58.8492 33.9999 60.7811 34.7423V55.0829ZM114.875 5.34498C114.726 6.2358 114.578 7.2751 114.28 8.3144H101.649V5.34498H114.875ZM98.9737 1.63319C99.5681 1.63319 100.163 2.07859 100.163 2.82095V30.4366C99.4195 31.0305 98.6765 31.4759 97.9334 32.0698V2.96943C97.9334 2.0786 98.3792 1.63319 98.9737 1.63319ZM96.4473 11.4323V32.8122C92.1376 35.3362 86.7877 37.2663 80.1003 37.2663C78.0198 37.2663 76.0879 37.1178 74.1559 36.9693C86.0447 33.9999 93.1779 21.2314 96.4473 11.4323ZM54.0937 30.8821V55.0829H48.8924V26.131C50.3785 27.7641 52.1618 29.3973 54.0937 30.8821ZM47.4063 24.3493V55.0829H41.4619V13.0655C42.6508 16.6288 44.5827 20.6375 47.4063 24.3493ZM19.9136 33.406C20.6567 32.9606 21.3997 32.3667 22.1428 31.7729V55.0829H19.9136V33.406ZM36.2606 40.9781H23.6288V36.524H36.2606V40.9781ZM36.2606 35.0392H23.6288V32.0698H36.2606V35.0392ZM36.2606 30.5851H23.6288C25.2635 29.2489 26.7496 27.7641 27.9385 26.131H36.2606V30.5851ZM36.2606 24.6462H29.276C30.4648 23.1615 31.3565 21.6768 32.2481 20.1921H36.2606V24.6462ZM36.2606 18.7074H32.9912C33.5856 17.6681 34.0315 16.7773 34.4773 15.738H36.2606V18.7074ZM35.2203 14.2533C35.6662 13.3624 35.9634 12.4716 36.2606 11.5808V14.2533H35.2203ZM33.5857 14.2533H23.6288V9.79912H35.2203C34.7745 11.1354 34.3287 12.6201 33.5857 14.2533ZM32.8426 15.738C32.3968 16.7773 31.8024 17.6681 31.3565 18.7074H23.6288V15.738H32.8426ZM30.4649 20.1921C29.5732 21.6768 28.5329 23.1615 27.3441 24.6462H23.6288V20.1921H30.4649ZM26.0066 26.131C25.2635 27.0218 24.5205 27.7642 23.6288 28.655V26.131H26.0066ZM23.6288 42.4628H36.2606V55.0829H23.6288V42.4628ZM36.2606 5.34498V5.93885C36.112 6.68121 35.9634 7.42357 35.6662 8.3144H23.6288V5.34498H36.2606ZM20.9539 1.63319C21.5483 1.63319 22.1428 2.07859 22.1428 2.82095V29.9912C21.3997 30.5851 20.6567 31.179 19.9136 31.6244V2.82095C19.9136 2.07859 20.3595 1.63319 20.9539 1.63319ZM13.0776 23.31C15.6039 19.3013 17.2386 14.1048 18.4275 9.50216V32.5152C16.7928 33.5545 15.0095 34.4454 13.0776 35.1877V23.31ZM13.0776 36.8209C15.0095 36.0786 16.7928 35.3362 18.4275 34.2969V55.0829H13.0776V36.8209ZM3.56661 58.0523C3.12078 58.0523 2.82356 57.7554 2.82356 57.3099C2.82356 56.8645 3.12078 56.5676 3.56661 56.5676H36.2606V58.0523H3.56661ZM19.9136 78.0959V59.537H22.1428V78.6898C21.5483 78.3929 20.8053 78.2444 19.9136 78.0959ZM28.8302 81.9561C27.6413 81.5107 26.601 80.9168 25.5607 80.4714C24.8177 80.026 24.2233 79.7291 23.4802 79.4322V59.6855H36.112V82.4016C35.2203 82.5501 34.3287 82.6985 33.1398 82.6985C31.5051 82.55 30.019 82.2531 28.8302 81.9561ZM37.7467 81.8077V2.67251C37.7467 2.07863 38.1925 1.48471 38.9356 1.48471C39.6786 1.48471 40.1245 1.93015 40.1245 2.67251V80.9169C39.2328 81.2139 38.4898 81.5108 37.7467 81.8077ZM95.7043 81.9561C94.5154 82.4016 93.0293 82.5501 91.246 82.5501C89.4627 82.5501 87.9766 82.2531 86.7877 81.9561C85.5988 81.5107 84.5586 80.9168 83.5183 80.4714C82.478 79.8775 81.5864 79.4321 80.5461 78.9867C79.5059 78.5413 78.1684 78.2444 76.6823 78.2444C75.1962 78.2444 74.0073 78.5413 72.8185 78.9867C71.7782 79.4321 70.7379 80.026 69.6977 80.4714C68.6574 81.0653 67.6171 81.5107 66.4283 81.9561C65.2394 82.4016 63.7533 82.5501 62.1186 82.5501C60.3353 82.5501 58.9978 82.2531 57.8089 81.9561C56.6201 81.5107 55.5798 80.9168 54.5395 80.4714C53.4993 79.8775 52.459 79.4321 51.5673 78.9867C50.5271 78.5413 49.1896 78.2444 47.7035 78.2444C46.2174 78.2444 45.0286 78.5413 43.8397 78.9867C42.948 79.4321 42.205 79.7291 41.3133 80.1746V59.6855H96.2987V81.6593C96.1501 81.6593 96.0015 81.8077 95.7043 81.9561ZM98.8251 80.323C98.5279 80.4715 98.2306 80.6199 97.9334 80.7684V59.3885H100.163V79.5806C99.7167 79.8776 99.2709 80.1745 98.8251 80.323ZM109.674 78.8383C108.633 78.3929 107.296 78.0959 105.81 78.0959C104.324 78.0959 103.135 78.3929 101.946 78.8383C101.797 78.8383 101.797 78.9867 101.649 78.9867V59.537H115.023V81.5107C114.132 81.2138 113.389 80.7684 112.646 80.323C111.605 79.8776 110.565 79.2837 109.674 78.8383ZM116.51 82.1047V2.67251C116.51 2.07863 116.955 1.48471 117.698 1.48471C118.441 1.48471 118.887 1.93015 118.887 2.67251V82.5501C117.847 82.4016 117.104 82.2531 116.51 82.1047ZM133.6 57.3099C133.6 57.7554 133.302 58.0523 132.857 58.0523H120.225V56.5676H132.857C133.302 56.5676 133.6 56.8645 133.6 57.3099ZM126.169 55.0829H120.225V10.2445C121.562 15.1441 123.494 20.489 126.169 24.4978V55.0829Z" fill="white"/>
<path d="M204.154 27.6156V67.7029H207.423L231.646 33.1091V67.7029H234.618V27.6156H231.795L207.126 62.9518V27.6156H204.154Z" fill="white"/>
<path d="M244.278 30.585H257.653V67.7029H260.625V30.585H274V27.6156H244.278V30.585Z" fill="white"/>
<path d="M167.002 27.6157V67.7029H170.122V27.6157H167.002Z" fill="white"/>
<path d="M171.757 47.0654V44.3929H171.905C173.094 43.9475 175.026 42.9082 176.958 41.5719C178.89 40.0872 180.525 38.3056 181.268 36.227C182.457 33.1091 183.794 30.882 185.875 29.5458C187.955 28.061 190.482 27.7641 193.751 27.7641V30.7335C190.63 30.7335 188.995 31.1789 187.658 31.9213C186.321 32.8121 185.28 34.2969 184.24 37.2663C183.2 40.0872 180.971 42.3143 178.89 43.9475C177.701 44.8383 176.512 45.5807 175.323 46.1746C178.444 48.6986 182.457 52.1134 185.875 55.6767C187.955 57.7553 189.887 59.9824 191.225 61.9125C192.562 63.8427 193.602 65.9212 193.602 67.7029H190.482C190.482 66.8121 189.887 65.3274 188.55 63.5457C187.212 61.7641 185.578 59.6855 183.497 57.6069C179.633 53.5981 175.026 49.5894 171.757 47.0654Z" fill="white"/>
</svg>
